<mxfile host="Electron" modified="2024-05-16T11:49:22.188Z" agent="Mozilla/5.0 (Macintosh; Intel Mac OS X 10_15_7) AppleWebKit/537.36 (KHTML, like Gecko) draw.io/24.2.5 Chrome/120.0.6099.109 Electron/28.1.0 Safari/537.36" etag="oPzAYHeZ8z96hBIsDzml" version="24.2.5" type="device">
  <diagram name="Page-1" id="bZBsJEEv_NVjQFhtzkVJ">
    <mxGraphModel dx="1964" dy="782" grid="1" gridSize="10" guides="1" tooltips="1" connect="1" arrows="1" fold="1" page="1" pageScale="1" pageWidth="850" pageHeight="1100" math="1" shadow="0">
      <root>
        <mxCell id="0" />
        <mxCell id="1" parent="0" />
        <UserObject label="X" placeholders="1" name="Variable" id="3ZK03s1uTfJQS2Cd98UN-81">
          <mxCell style="text;html=1;strokeColor=none;fillColor=none;align=center;verticalAlign=middle;whiteSpace=wrap;overflow=hidden;rotation=0;fontSize=10;" parent="1" vertex="1">
            <mxGeometry x="-153" y="540.97" width="19" height="14.25" as="geometry" />
          </mxCell>
        </UserObject>
        <mxCell id="3ZK03s1uTfJQS2Cd98UN-83" value="" style="shape=curlyBracket;whiteSpace=wrap;html=1;rounded=1;labelPosition=left;verticalLabelPosition=middle;align=right;verticalAlign=middle;rotation=90;" parent="1" vertex="1">
          <mxGeometry x="-123.64" y="449.86" width="20" height="180" as="geometry" />
        </mxCell>
        <UserObject label="$$\text{Tableau for the initial state}~\ket{0000}$$" placeholders="1" name="Variable" id="JFvsJJ7zDFb6BvxLpj8v-17">
          <mxCell style="text;html=1;strokeColor=none;fillColor=none;align=center;verticalAlign=middle;whiteSpace=wrap;overflow=hidden;rotation=0;fontStyle=0" parent="1" vertex="1">
            <mxGeometry x="-235.5" y="496.22" width="270" height="50" as="geometry" />
          </mxCell>
        </UserObject>
        <UserObject label="Z" placeholders="1" name="Variable" id="JFvsJJ7zDFb6BvxLpj8v-37">
          <mxCell style="text;html=1;strokeColor=none;fillColor=none;align=center;verticalAlign=middle;whiteSpace=wrap;overflow=hidden;rotation=0;fontSize=10;" parent="1" vertex="1">
            <mxGeometry x="-73" y="540.97" width="19" height="14.25" as="geometry" />
          </mxCell>
        </UserObject>
        <mxCell id="JFvsJJ7zDFb6BvxLpj8v-38" value="" style="shape=flexArrow;endArrow=classic;html=1;rounded=0;endWidth=5.5;endSize=2.415;width=6;fillColor=#990000;" parent="1" edge="1">
          <mxGeometry width="50" height="50" relative="1" as="geometry">
            <mxPoint x="-102.75" y="649.22" as="sourcePoint" />
            <mxPoint x="-102.75" y="669.22" as="targetPoint" />
          </mxGeometry>
        </mxCell>
        <UserObject label="$$\text{Partition}~1$$" placeholders="1" name="Variable" id="JFvsJJ7zDFb6BvxLpj8v-228">
          <mxCell style="text;html=1;strokeColor=none;fillColor=none;align=center;verticalAlign=middle;whiteSpace=wrap;overflow=hidden;rotation=0;fontSize=10;" parent="1" vertex="1">
            <mxGeometry x="-280" y="652.47" width="68.5" height="24" as="geometry" />
          </mxCell>
        </UserObject>
        <UserObject label="Tableau Partitioning" placeholders="1" name="Variable" id="V1e9pzaGmxN9BiFdg47Z-1">
          <mxCell style="text;html=1;strokeColor=none;fillColor=none;align=center;verticalAlign=middle;whiteSpace=wrap;overflow=hidden;rotation=0;fontSize=10;fontStyle=1;fontColor=#990000;" parent="1" vertex="1">
            <mxGeometry x="-172" y="642.78" width="62" height="30" as="geometry" />
          </mxCell>
        </UserObject>
        <mxCell id="V1e9pzaGmxN9BiFdg47Z-227" value="" style="group" parent="1" vertex="1" connectable="0">
          <mxGeometry x="-591" y="520" width="290" height="200" as="geometry" />
        </mxCell>
        <mxCell id="V1e9pzaGmxN9BiFdg47Z-226" value="" style="rounded=1;whiteSpace=wrap;html=1;arcSize=4;fillColor=#E6E6E6;" parent="V1e9pzaGmxN9BiFdg47Z-227" vertex="1">
          <mxGeometry width="290" height="200" as="geometry" />
        </mxCell>
        <mxCell id="V1e9pzaGmxN9BiFdg47Z-6" value="" style="endArrow=classic;startArrow=classic;html=1;rounded=0;exitX=0.5;exitY=1;exitDx=0;exitDy=0;strokeWidth=1;endSize=4;startSize=4;jumpSize=5;entryX=0.235;entryY=0.01;entryDx=0;entryDy=0;entryPerimeter=0;" parent="V1e9pzaGmxN9BiFdg47Z-227" edge="1">
          <mxGeometry width="50" height="50" relative="1" as="geometry">
            <mxPoint x="69.7012666894899" y="142.63157894736844" as="sourcePoint" />
            <mxPoint x="69.74117767887697" y="160" as="targetPoint" />
          </mxGeometry>
        </mxCell>
        <mxCell id="V1e9pzaGmxN9BiFdg47Z-7" value="" style="endArrow=classic;startArrow=classic;html=1;rounded=0;strokeWidth=1;endSize=4;startSize=4;jumpSize=5;entryX=0.756;entryY=0.003;entryDx=0;entryDy=0;entryPerimeter=0;" parent="V1e9pzaGmxN9BiFdg47Z-227" edge="1">
          <mxGeometry width="50" height="50" relative="1" as="geometry">
            <mxPoint x="216.4525984251968" y="142.63157894736844" as="sourcePoint" />
            <mxPoint x="216.38617185895237" y="160" as="targetPoint" />
          </mxGeometry>
        </mxCell>
        <mxCell id="V1e9pzaGmxN9BiFdg47Z-9" value="" style="rounded=1;whiteSpace=wrap;html=1;arcSize=12;imageAspect=0;fillColor=#FFB366;container=0;" parent="V1e9pzaGmxN9BiFdg47Z-227" vertex="1">
          <mxGeometry x="11" y="160" width="268" height="30" as="geometry" />
        </mxCell>
        <mxCell id="V1e9pzaGmxN9BiFdg47Z-10" value="&lt;font style=&quot;font-size: 11px;&quot;&gt;Global memory (&lt;b&gt;Tableau partition&lt;/b&gt;)&lt;/font&gt;" style="text;html=1;strokeColor=none;fillColor=none;align=center;verticalAlign=middle;whiteSpace=wrap;rounded=0;movable=1;resizable=1;rotatable=1;deletable=1;editable=1;locked=0;connectable=1;container=0;fontSize=11;fontStyle=0" parent="V1e9pzaGmxN9BiFdg47Z-227" vertex="1">
          <mxGeometry x="55.129999999999995" y="165.78999999999996" width="179.75" height="17.77" as="geometry" />
        </mxCell>
        <mxCell id="V1e9pzaGmxN9BiFdg47Z-11" value="" style="rounded=0;whiteSpace=wrap;html=1;arcSize=4;imageAspect=0;fillColor=#E8E8BA;container=0;" parent="V1e9pzaGmxN9BiFdg47Z-227" vertex="1">
          <mxGeometry x="11.09571428571428" y="10" width="124.77733855185909" height="132.6315789473684" as="geometry" />
        </mxCell>
        <mxCell id="V1e9pzaGmxN9BiFdg47Z-12" value="&lt;font style=&quot;font-size: 11px;&quot;&gt;Threads&lt;/font&gt;" style="text;html=1;strokeColor=none;fillColor=none;align=center;verticalAlign=middle;whiteSpace=wrap;rounded=0;container=0;fontSize=11;" parent="V1e9pzaGmxN9BiFdg47Z-227" vertex="1">
          <mxGeometry x="20.270518590998222" y="11.657894736842081" width="106.42772994129157" height="16.57894736842105" as="geometry" />
        </mxCell>
        <mxCell id="V1e9pzaGmxN9BiFdg47Z-13" value="" style="rounded=1;whiteSpace=wrap;html=1;fillColor=#dae8fc;strokeColor=#000000;container=0;" parent="V1e9pzaGmxN9BiFdg47Z-227" vertex="1">
          <mxGeometry x="14.76563600782788" y="114.99999999999989" width="117.43749510763207" height="22.105263157894733" as="geometry" />
        </mxCell>
        <mxCell id="V1e9pzaGmxN9BiFdg47Z-14" value="&lt;font style=&quot;font-size: 11px;&quot;&gt;Shared memory&lt;/font&gt;" style="text;html=1;strokeColor=none;fillColor=none;align=center;verticalAlign=middle;whiteSpace=wrap;rounded=0;container=0;fontSize=11;" parent="V1e9pzaGmxN9BiFdg47Z-227" vertex="1">
          <mxGeometry x="26.50938551859099" y="117.76315789473688" width="93.94999608610567" height="16.57894736842105" as="geometry" />
        </mxCell>
        <mxCell id="V1e9pzaGmxN9BiFdg47Z-16" value="" style="verticalLabelPosition=bottom;verticalAlign=top;html=1;shape=mxgraph.basic.rect;fillColor2=none;strokeWidth=0.5;size=20;indent=5;fillColor=#B3FF66;strokeColor=#000000;container=0;" parent="V1e9pzaGmxN9BiFdg47Z-227" vertex="1">
          <mxGeometry x="23.022959882583223" y="32.10526315789468" width="5.504882583170254" height="8.289473684210526" as="geometry" />
        </mxCell>
        <mxCell id="V1e9pzaGmxN9BiFdg47Z-17" value="" style="verticalLabelPosition=bottom;verticalAlign=top;html=1;shape=mxgraph.basic.rect;fillColor2=none;strokeWidth=0.5;size=20;indent=5;fillColor=#B3FF66;strokeColor=#000000;container=0;" parent="V1e9pzaGmxN9BiFdg47Z-227" vertex="1">
          <mxGeometry x="30.362803326810194" y="32.10526315789468" width="5.504882583170254" height="8.289473684210526" as="geometry" />
        </mxCell>
        <mxCell id="V1e9pzaGmxN9BiFdg47Z-18" value="" style="verticalLabelPosition=bottom;verticalAlign=top;html=1;shape=mxgraph.basic.rect;fillColor2=none;strokeWidth=0.5;size=20;indent=5;fillColor=#B3FF66;strokeColor=#000000;container=0;" parent="V1e9pzaGmxN9BiFdg47Z-227" vertex="1">
          <mxGeometry x="37.70264677103728" y="32.10526315789468" width="5.504882583170254" height="8.289473684210526" as="geometry" />
        </mxCell>
        <mxCell id="V1e9pzaGmxN9BiFdg47Z-19" value="" style="verticalLabelPosition=bottom;verticalAlign=top;html=1;shape=mxgraph.basic.rect;fillColor2=none;strokeWidth=0.5;size=20;indent=5;fillColor=#B3FF66;strokeColor=#000000;container=0;" parent="V1e9pzaGmxN9BiFdg47Z-227" vertex="1">
          <mxGeometry x="45.04249021526414" y="32.10526315789468" width="5.504882583170254" height="8.289473684210526" as="geometry" />
        </mxCell>
        <mxCell id="V1e9pzaGmxN9BiFdg47Z-20" value="" style="verticalLabelPosition=bottom;verticalAlign=top;html=1;shape=mxgraph.basic.rect;fillColor2=none;strokeWidth=0.5;size=20;indent=5;fillColor=#B3FF66;strokeColor=#000000;container=0;" parent="V1e9pzaGmxN9BiFdg47Z-227" vertex="1">
          <mxGeometry x="52.38233365949122" y="32.10526315789468" width="5.504882583170254" height="8.289473684210526" as="geometry" />
        </mxCell>
        <mxCell id="V1e9pzaGmxN9BiFdg47Z-21" value="" style="verticalLabelPosition=bottom;verticalAlign=top;html=1;shape=mxgraph.basic.rect;fillColor2=none;strokeWidth=0.5;size=20;indent=5;fillColor=#B3FF66;strokeColor=#000000;container=0;" parent="V1e9pzaGmxN9BiFdg47Z-227" vertex="1">
          <mxGeometry x="59.722177103718195" y="32.10526315789468" width="5.504882583170254" height="8.289473684210526" as="geometry" />
        </mxCell>
        <mxCell id="V1e9pzaGmxN9BiFdg47Z-22" value="" style="verticalLabelPosition=bottom;verticalAlign=top;html=1;shape=mxgraph.basic.rect;fillColor2=none;strokeWidth=0.5;size=20;indent=5;fillColor=#B3FF66;strokeColor=#000000;container=0;" parent="V1e9pzaGmxN9BiFdg47Z-227" vertex="1">
          <mxGeometry x="67.06202054794517" y="32.10526315789468" width="5.504882583170254" height="8.289473684210526" as="geometry" />
        </mxCell>
        <mxCell id="V1e9pzaGmxN9BiFdg47Z-23" value="" style="verticalLabelPosition=bottom;verticalAlign=top;html=1;shape=mxgraph.basic.rect;fillColor2=none;strokeWidth=0.5;size=20;indent=5;fillColor=#B3FF66;strokeColor=#000000;container=0;" parent="V1e9pzaGmxN9BiFdg47Z-227" vertex="1">
          <mxGeometry x="74.40186399217225" y="32.10526315789468" width="5.504882583170254" height="8.289473684210526" as="geometry" />
        </mxCell>
        <mxCell id="V1e9pzaGmxN9BiFdg47Z-24" value="" style="verticalLabelPosition=bottom;verticalAlign=top;html=1;shape=mxgraph.basic.rect;fillColor2=none;strokeWidth=0.5;size=20;indent=5;fillColor=#B3FF66;strokeColor=#000000;container=0;" parent="V1e9pzaGmxN9BiFdg47Z-227" vertex="1">
          <mxGeometry x="81.74170743639928" y="32.10526315789468" width="5.504882583170254" height="8.289473684210526" as="geometry" />
        </mxCell>
        <mxCell id="V1e9pzaGmxN9BiFdg47Z-25" value="" style="verticalLabelPosition=bottom;verticalAlign=top;html=1;shape=mxgraph.basic.rect;fillColor2=none;strokeWidth=0.5;size=20;indent=5;fillColor=#B3FF66;strokeColor=#000000;container=0;" parent="V1e9pzaGmxN9BiFdg47Z-227" vertex="1">
          <mxGeometry x="89.08155088062631" y="32.10526315789468" width="5.504882583170254" height="8.289473684210526" as="geometry" />
        </mxCell>
        <mxCell id="V1e9pzaGmxN9BiFdg47Z-26" value="" style="verticalLabelPosition=bottom;verticalAlign=top;html=1;shape=mxgraph.basic.rect;fillColor2=none;strokeWidth=0.5;size=20;indent=5;fillColor=#B3FF66;strokeColor=#000000;container=0;" parent="V1e9pzaGmxN9BiFdg47Z-227" vertex="1">
          <mxGeometry x="96.42139432485328" y="32.10526315789468" width="5.504882583170254" height="8.289473684210526" as="geometry" />
        </mxCell>
        <mxCell id="V1e9pzaGmxN9BiFdg47Z-27" value="" style="verticalLabelPosition=bottom;verticalAlign=top;html=1;shape=mxgraph.basic.rect;fillColor2=none;strokeWidth=0.5;size=20;indent=5;fillColor=#B3FF66;strokeColor=#000000;container=0;" parent="V1e9pzaGmxN9BiFdg47Z-227" vertex="1">
          <mxGeometry x="103.76123776908037" y="32.10526315789468" width="5.504882583170254" height="8.289473684210526" as="geometry" />
        </mxCell>
        <mxCell id="V1e9pzaGmxN9BiFdg47Z-28" value="" style="verticalLabelPosition=bottom;verticalAlign=top;html=1;shape=mxgraph.basic.rect;fillColor2=none;strokeWidth=0.5;size=20;indent=5;fillColor=#B3FF66;strokeColor=#000000;container=0;" parent="V1e9pzaGmxN9BiFdg47Z-227" vertex="1">
          <mxGeometry x="111.10108121330734" y="32.10526315789468" width="5.504882583170254" height="8.289473684210526" as="geometry" />
        </mxCell>
        <mxCell id="V1e9pzaGmxN9BiFdg47Z-29" value="" style="verticalLabelPosition=bottom;verticalAlign=top;html=1;shape=mxgraph.basic.rect;fillColor2=none;strokeWidth=0.5;size=20;indent=5;fillColor=#B3FF66;strokeColor=#000000;container=0;" parent="V1e9pzaGmxN9BiFdg47Z-227" vertex="1">
          <mxGeometry x="118.44092465753431" y="32.10526315789468" width="5.504882583170254" height="8.289473684210526" as="geometry" />
        </mxCell>
        <mxCell id="V1e9pzaGmxN9BiFdg47Z-30" value="" style="verticalLabelPosition=bottom;verticalAlign=top;html=1;shape=mxgraph.basic.rect;fillColor2=none;strokeWidth=0.5;size=20;indent=5;fillColor=#B3FF66;strokeColor=#000000;container=0;" parent="V1e9pzaGmxN9BiFdg47Z-227" vertex="1">
          <mxGeometry x="23.206455968688942" y="43.15789473684208" width="5.504882583170254" height="8.289473684210526" as="geometry" />
        </mxCell>
        <mxCell id="V1e9pzaGmxN9BiFdg47Z-31" value="" style="verticalLabelPosition=bottom;verticalAlign=top;html=1;shape=mxgraph.basic.rect;fillColor2=none;strokeWidth=0.5;size=20;indent=5;fillColor=#B3FF66;strokeColor=#000000;container=0;" parent="V1e9pzaGmxN9BiFdg47Z-227" vertex="1">
          <mxGeometry x="30.5462994129158" y="43.15789473684208" width="5.504882583170254" height="8.289473684210526" as="geometry" />
        </mxCell>
        <mxCell id="V1e9pzaGmxN9BiFdg47Z-32" value="" style="verticalLabelPosition=bottom;verticalAlign=top;html=1;shape=mxgraph.basic.rect;fillColor2=none;strokeWidth=0.5;size=20;indent=5;fillColor=#B3FF66;strokeColor=#000000;container=0;" parent="V1e9pzaGmxN9BiFdg47Z-227" vertex="1">
          <mxGeometry x="37.886142857142886" y="43.15789473684208" width="5.504882583170254" height="8.289473684210526" as="geometry" />
        </mxCell>
        <mxCell id="V1e9pzaGmxN9BiFdg47Z-33" value="" style="verticalLabelPosition=bottom;verticalAlign=top;html=1;shape=mxgraph.basic.rect;fillColor2=none;strokeWidth=0.5;size=20;indent=5;fillColor=#B3FF66;strokeColor=#000000;container=0;" parent="V1e9pzaGmxN9BiFdg47Z-227" vertex="1">
          <mxGeometry x="45.22598630136997" y="43.15789473684208" width="5.504882583170254" height="8.289473684210526" as="geometry" />
        </mxCell>
        <mxCell id="V1e9pzaGmxN9BiFdg47Z-34" value="" style="verticalLabelPosition=bottom;verticalAlign=top;html=1;shape=mxgraph.basic.rect;fillColor2=none;strokeWidth=0.5;size=20;indent=5;fillColor=#B3FF66;strokeColor=#000000;container=0;" parent="V1e9pzaGmxN9BiFdg47Z-227" vertex="1">
          <mxGeometry x="52.56582974559683" y="43.15789473684208" width="5.504882583170254" height="8.289473684210526" as="geometry" />
        </mxCell>
        <mxCell id="V1e9pzaGmxN9BiFdg47Z-35" value="" style="verticalLabelPosition=bottom;verticalAlign=top;html=1;shape=mxgraph.basic.rect;fillColor2=none;strokeWidth=0.5;size=20;indent=5;fillColor=#B3FF66;strokeColor=#000000;container=0;" parent="V1e9pzaGmxN9BiFdg47Z-227" vertex="1">
          <mxGeometry x="59.905673189823915" y="43.15789473684208" width="5.504882583170254" height="8.289473684210526" as="geometry" />
        </mxCell>
        <mxCell id="V1e9pzaGmxN9BiFdg47Z-36" value="" style="verticalLabelPosition=bottom;verticalAlign=top;html=1;shape=mxgraph.basic.rect;fillColor2=none;strokeWidth=0.5;size=20;indent=5;fillColor=#B3FF66;strokeColor=#000000;container=0;" parent="V1e9pzaGmxN9BiFdg47Z-227" vertex="1">
          <mxGeometry x="67.245516634051" y="43.15789473684208" width="5.504882583170254" height="8.289473684210526" as="geometry" />
        </mxCell>
        <mxCell id="V1e9pzaGmxN9BiFdg47Z-37" value="" style="verticalLabelPosition=bottom;verticalAlign=top;html=1;shape=mxgraph.basic.rect;fillColor2=none;strokeWidth=0.5;size=20;indent=5;fillColor=#B3FF66;strokeColor=#000000;container=0;" parent="V1e9pzaGmxN9BiFdg47Z-227" vertex="1">
          <mxGeometry x="74.58536007827786" y="43.15789473684208" width="5.504882583170254" height="8.289473684210526" as="geometry" />
        </mxCell>
        <mxCell id="V1e9pzaGmxN9BiFdg47Z-38" value="" style="verticalLabelPosition=bottom;verticalAlign=top;html=1;shape=mxgraph.basic.rect;fillColor2=none;strokeWidth=0.5;size=20;indent=5;fillColor=#B3FF66;strokeColor=#000000;container=0;" parent="V1e9pzaGmxN9BiFdg47Z-227" vertex="1">
          <mxGeometry x="81.92520352250489" y="43.15789473684208" width="5.504882583170254" height="8.289473684210526" as="geometry" />
        </mxCell>
        <mxCell id="V1e9pzaGmxN9BiFdg47Z-39" value="" style="verticalLabelPosition=bottom;verticalAlign=top;html=1;shape=mxgraph.basic.rect;fillColor2=none;strokeWidth=0.5;size=20;indent=5;fillColor=#B3FF66;strokeColor=#000000;container=0;" parent="V1e9pzaGmxN9BiFdg47Z-227" vertex="1">
          <mxGeometry x="89.26504696673192" y="43.15789473684208" width="5.504882583170254" height="8.289473684210526" as="geometry" />
        </mxCell>
        <mxCell id="V1e9pzaGmxN9BiFdg47Z-40" value="" style="verticalLabelPosition=bottom;verticalAlign=top;html=1;shape=mxgraph.basic.rect;fillColor2=none;strokeWidth=0.5;size=20;indent=5;fillColor=#B3FF66;strokeColor=#000000;container=0;" parent="V1e9pzaGmxN9BiFdg47Z-227" vertex="1">
          <mxGeometry x="96.60489041095894" y="43.15789473684208" width="5.504882583170254" height="8.289473684210526" as="geometry" />
        </mxCell>
        <mxCell id="V1e9pzaGmxN9BiFdg47Z-41" value="" style="verticalLabelPosition=bottom;verticalAlign=top;html=1;shape=mxgraph.basic.rect;fillColor2=none;strokeWidth=0.5;size=20;indent=5;fillColor=#B3FF66;strokeColor=#000000;container=0;" parent="V1e9pzaGmxN9BiFdg47Z-227" vertex="1">
          <mxGeometry x="103.94473385518592" y="43.15789473684208" width="5.504882583170254" height="8.289473684210526" as="geometry" />
        </mxCell>
        <mxCell id="V1e9pzaGmxN9BiFdg47Z-42" value="" style="verticalLabelPosition=bottom;verticalAlign=top;html=1;shape=mxgraph.basic.rect;fillColor2=none;strokeWidth=0.5;size=20;indent=5;fillColor=#B3FF66;strokeColor=#000000;container=0;" parent="V1e9pzaGmxN9BiFdg47Z-227" vertex="1">
          <mxGeometry x="111.28457729941294" y="43.15789473684208" width="5.504882583170254" height="8.289473684210526" as="geometry" />
        </mxCell>
        <mxCell id="V1e9pzaGmxN9BiFdg47Z-43" value="" style="verticalLabelPosition=bottom;verticalAlign=top;html=1;shape=mxgraph.basic.rect;fillColor2=none;strokeWidth=0.5;size=20;indent=5;fillColor=#B3FF66;strokeColor=#000000;container=0;" parent="V1e9pzaGmxN9BiFdg47Z-227" vertex="1">
          <mxGeometry x="118.62442074363997" y="43.15789473684208" width="5.504882583170254" height="8.289473684210526" as="geometry" />
        </mxCell>
        <mxCell id="V1e9pzaGmxN9BiFdg47Z-44" value="" style="verticalLabelPosition=bottom;verticalAlign=top;html=1;shape=mxgraph.basic.rect;fillColor2=none;strokeWidth=0.5;size=20;indent=5;fillColor=#B3FF66;strokeColor=#000000;container=0;" parent="V1e9pzaGmxN9BiFdg47Z-227" vertex="1">
          <mxGeometry x="23.206455968688942" y="54.21052631578959" width="5.504882583170254" height="8.289473684210526" as="geometry" />
        </mxCell>
        <mxCell id="V1e9pzaGmxN9BiFdg47Z-45" value="" style="verticalLabelPosition=bottom;verticalAlign=top;html=1;shape=mxgraph.basic.rect;fillColor2=none;strokeWidth=0.5;size=20;indent=5;fillColor=#B3FF66;strokeColor=#000000;container=0;" parent="V1e9pzaGmxN9BiFdg47Z-227" vertex="1">
          <mxGeometry x="30.5462994129158" y="54.21052631578959" width="5.504882583170254" height="8.289473684210526" as="geometry" />
        </mxCell>
        <mxCell id="V1e9pzaGmxN9BiFdg47Z-46" value="" style="verticalLabelPosition=bottom;verticalAlign=top;html=1;shape=mxgraph.basic.rect;fillColor2=none;strokeWidth=0.5;size=20;indent=5;fillColor=#B3FF66;strokeColor=#000000;container=0;" parent="V1e9pzaGmxN9BiFdg47Z-227" vertex="1">
          <mxGeometry x="37.886142857142886" y="54.21052631578959" width="5.504882583170254" height="8.289473684210526" as="geometry" />
        </mxCell>
        <mxCell id="V1e9pzaGmxN9BiFdg47Z-47" value="" style="verticalLabelPosition=bottom;verticalAlign=top;html=1;shape=mxgraph.basic.rect;fillColor2=none;strokeWidth=0.5;size=20;indent=5;fillColor=#B3FF66;strokeColor=#000000;container=0;" parent="V1e9pzaGmxN9BiFdg47Z-227" vertex="1">
          <mxGeometry x="45.22598630136997" y="54.21052631578959" width="5.504882583170254" height="8.289473684210526" as="geometry" />
        </mxCell>
        <mxCell id="V1e9pzaGmxN9BiFdg47Z-48" value="" style="verticalLabelPosition=bottom;verticalAlign=top;html=1;shape=mxgraph.basic.rect;fillColor2=none;strokeWidth=0.5;size=20;indent=5;fillColor=#B3FF66;strokeColor=#000000;container=0;" parent="V1e9pzaGmxN9BiFdg47Z-227" vertex="1">
          <mxGeometry x="52.56582974559683" y="54.21052631578959" width="5.504882583170254" height="8.289473684210526" as="geometry" />
        </mxCell>
        <mxCell id="V1e9pzaGmxN9BiFdg47Z-49" value="" style="verticalLabelPosition=bottom;verticalAlign=top;html=1;shape=mxgraph.basic.rect;fillColor2=none;strokeWidth=0.5;size=20;indent=5;fillColor=#B3FF66;strokeColor=#000000;container=0;" parent="V1e9pzaGmxN9BiFdg47Z-227" vertex="1">
          <mxGeometry x="59.905673189823915" y="54.21052631578959" width="5.504882583170254" height="8.289473684210526" as="geometry" />
        </mxCell>
        <mxCell id="V1e9pzaGmxN9BiFdg47Z-50" value="" style="verticalLabelPosition=bottom;verticalAlign=top;html=1;shape=mxgraph.basic.rect;fillColor2=none;strokeWidth=0.5;size=20;indent=5;fillColor=#B3FF66;strokeColor=#000000;container=0;" parent="V1e9pzaGmxN9BiFdg47Z-227" vertex="1">
          <mxGeometry x="67.245516634051" y="54.21052631578959" width="5.504882583170254" height="8.289473684210526" as="geometry" />
        </mxCell>
        <mxCell id="V1e9pzaGmxN9BiFdg47Z-51" value="" style="verticalLabelPosition=bottom;verticalAlign=top;html=1;shape=mxgraph.basic.rect;fillColor2=none;strokeWidth=0.5;size=20;indent=5;fillColor=#B3FF66;strokeColor=#000000;container=0;" parent="V1e9pzaGmxN9BiFdg47Z-227" vertex="1">
          <mxGeometry x="74.58536007827786" y="54.21052631578959" width="5.504882583170254" height="8.289473684210526" as="geometry" />
        </mxCell>
        <mxCell id="V1e9pzaGmxN9BiFdg47Z-52" value="" style="verticalLabelPosition=bottom;verticalAlign=top;html=1;shape=mxgraph.basic.rect;fillColor2=none;strokeWidth=0.5;size=20;indent=5;fillColor=#B3FF66;strokeColor=#000000;container=0;" parent="V1e9pzaGmxN9BiFdg47Z-227" vertex="1">
          <mxGeometry x="81.92520352250489" y="54.21052631578959" width="5.504882583170254" height="8.289473684210526" as="geometry" />
        </mxCell>
        <mxCell id="V1e9pzaGmxN9BiFdg47Z-53" value="" style="verticalLabelPosition=bottom;verticalAlign=top;html=1;shape=mxgraph.basic.rect;fillColor2=none;strokeWidth=0.5;size=20;indent=5;fillColor=#B3FF66;strokeColor=#000000;container=0;" parent="V1e9pzaGmxN9BiFdg47Z-227" vertex="1">
          <mxGeometry x="89.26504696673192" y="54.21052631578959" width="5.504882583170254" height="8.289473684210526" as="geometry" />
        </mxCell>
        <mxCell id="V1e9pzaGmxN9BiFdg47Z-54" value="" style="verticalLabelPosition=bottom;verticalAlign=top;html=1;shape=mxgraph.basic.rect;fillColor2=none;strokeWidth=0.5;size=20;indent=5;fillColor=#B3FF66;strokeColor=#000000;container=0;" parent="V1e9pzaGmxN9BiFdg47Z-227" vertex="1">
          <mxGeometry x="96.60489041095894" y="54.21052631578959" width="5.504882583170254" height="8.289473684210526" as="geometry" />
        </mxCell>
        <mxCell id="V1e9pzaGmxN9BiFdg47Z-55" value="" style="verticalLabelPosition=bottom;verticalAlign=top;html=1;shape=mxgraph.basic.rect;fillColor2=none;strokeWidth=0.5;size=20;indent=5;fillColor=#B3FF66;strokeColor=#000000;container=0;" parent="V1e9pzaGmxN9BiFdg47Z-227" vertex="1">
          <mxGeometry x="103.94473385518592" y="54.21052631578959" width="5.504882583170254" height="8.289473684210526" as="geometry" />
        </mxCell>
        <mxCell id="V1e9pzaGmxN9BiFdg47Z-56" value="" style="verticalLabelPosition=bottom;verticalAlign=top;html=1;shape=mxgraph.basic.rect;fillColor2=none;strokeWidth=0.5;size=20;indent=5;fillColor=#B3FF66;strokeColor=#000000;container=0;" parent="V1e9pzaGmxN9BiFdg47Z-227" vertex="1">
          <mxGeometry x="111.28457729941294" y="54.21052631578959" width="5.504882583170254" height="8.289473684210526" as="geometry" />
        </mxCell>
        <mxCell id="V1e9pzaGmxN9BiFdg47Z-57" value="" style="verticalLabelPosition=bottom;verticalAlign=top;html=1;shape=mxgraph.basic.rect;fillColor2=none;strokeWidth=0.5;size=20;indent=5;fillColor=#B3FF66;strokeColor=#000000;container=0;" parent="V1e9pzaGmxN9BiFdg47Z-227" vertex="1">
          <mxGeometry x="118.62442074363997" y="54.21052631578959" width="5.504882583170254" height="8.289473684210526" as="geometry" />
        </mxCell>
        <mxCell id="V1e9pzaGmxN9BiFdg47Z-58" value="" style="verticalLabelPosition=bottom;verticalAlign=top;html=1;shape=mxgraph.basic.rect;fillColor2=none;strokeWidth=0.5;size=20;indent=5;fillColor=#B3FF66;strokeColor=#000000;container=0;" parent="V1e9pzaGmxN9BiFdg47Z-227" vertex="1">
          <mxGeometry x="23.206455968688942" y="65.26315789473676" width="5.504882583170254" height="8.289473684210526" as="geometry" />
        </mxCell>
        <mxCell id="V1e9pzaGmxN9BiFdg47Z-59" value="" style="verticalLabelPosition=bottom;verticalAlign=top;html=1;shape=mxgraph.basic.rect;fillColor2=none;strokeWidth=0.5;size=20;indent=5;fillColor=#B3FF66;strokeColor=#000000;container=0;" parent="V1e9pzaGmxN9BiFdg47Z-227" vertex="1">
          <mxGeometry x="30.5462994129158" y="65.26315789473676" width="5.504882583170254" height="8.289473684210526" as="geometry" />
        </mxCell>
        <mxCell id="V1e9pzaGmxN9BiFdg47Z-60" value="" style="verticalLabelPosition=bottom;verticalAlign=top;html=1;shape=mxgraph.basic.rect;fillColor2=none;strokeWidth=0.5;size=20;indent=5;fillColor=#B3FF66;strokeColor=#000000;container=0;" parent="V1e9pzaGmxN9BiFdg47Z-227" vertex="1">
          <mxGeometry x="37.886142857142886" y="65.26315789473676" width="5.504882583170254" height="8.289473684210526" as="geometry" />
        </mxCell>
        <mxCell id="V1e9pzaGmxN9BiFdg47Z-61" value="" style="verticalLabelPosition=bottom;verticalAlign=top;html=1;shape=mxgraph.basic.rect;fillColor2=none;strokeWidth=0.5;size=20;indent=5;fillColor=#B3FF66;strokeColor=#000000;container=0;" parent="V1e9pzaGmxN9BiFdg47Z-227" vertex="1">
          <mxGeometry x="45.22598630136997" y="65.26315789473676" width="5.504882583170254" height="8.289473684210526" as="geometry" />
        </mxCell>
        <mxCell id="V1e9pzaGmxN9BiFdg47Z-62" value="" style="verticalLabelPosition=bottom;verticalAlign=top;html=1;shape=mxgraph.basic.rect;fillColor2=none;strokeWidth=0.5;size=20;indent=5;fillColor=#B3FF66;strokeColor=#000000;container=0;" parent="V1e9pzaGmxN9BiFdg47Z-227" vertex="1">
          <mxGeometry x="52.56582974559683" y="65.26315789473676" width="5.504882583170254" height="8.289473684210526" as="geometry" />
        </mxCell>
        <mxCell id="V1e9pzaGmxN9BiFdg47Z-63" value="" style="verticalLabelPosition=bottom;verticalAlign=top;html=1;shape=mxgraph.basic.rect;fillColor2=none;strokeWidth=0.5;size=20;indent=5;fillColor=#B3FF66;strokeColor=#000000;container=0;" parent="V1e9pzaGmxN9BiFdg47Z-227" vertex="1">
          <mxGeometry x="59.905673189823915" y="65.26315789473676" width="5.504882583170254" height="8.289473684210526" as="geometry" />
        </mxCell>
        <mxCell id="V1e9pzaGmxN9BiFdg47Z-64" value="" style="verticalLabelPosition=bottom;verticalAlign=top;html=1;shape=mxgraph.basic.rect;fillColor2=none;strokeWidth=0.5;size=20;indent=5;fillColor=#B3FF66;strokeColor=#000000;container=0;" parent="V1e9pzaGmxN9BiFdg47Z-227" vertex="1">
          <mxGeometry x="67.245516634051" y="65.26315789473676" width="5.504882583170254" height="8.289473684210526" as="geometry" />
        </mxCell>
        <mxCell id="V1e9pzaGmxN9BiFdg47Z-65" value="" style="verticalLabelPosition=bottom;verticalAlign=top;html=1;shape=mxgraph.basic.rect;fillColor2=none;strokeWidth=0.5;size=20;indent=5;fillColor=#B3FF66;strokeColor=#000000;container=0;" parent="V1e9pzaGmxN9BiFdg47Z-227" vertex="1">
          <mxGeometry x="74.58536007827786" y="65.26315789473676" width="5.504882583170254" height="8.289473684210526" as="geometry" />
        </mxCell>
        <mxCell id="V1e9pzaGmxN9BiFdg47Z-66" value="" style="verticalLabelPosition=bottom;verticalAlign=top;html=1;shape=mxgraph.basic.rect;fillColor2=none;strokeWidth=0.5;size=20;indent=5;fillColor=#B3FF66;strokeColor=#000000;container=0;" parent="V1e9pzaGmxN9BiFdg47Z-227" vertex="1">
          <mxGeometry x="81.92520352250489" y="65.26315789473676" width="5.504882583170254" height="8.289473684210526" as="geometry" />
        </mxCell>
        <mxCell id="V1e9pzaGmxN9BiFdg47Z-67" value="" style="verticalLabelPosition=bottom;verticalAlign=top;html=1;shape=mxgraph.basic.rect;fillColor2=none;strokeWidth=0.5;size=20;indent=5;fillColor=#B3FF66;strokeColor=#000000;container=0;" parent="V1e9pzaGmxN9BiFdg47Z-227" vertex="1">
          <mxGeometry x="89.26504696673192" y="65.26315789473676" width="5.504882583170254" height="8.289473684210526" as="geometry" />
        </mxCell>
        <mxCell id="V1e9pzaGmxN9BiFdg47Z-68" value="" style="verticalLabelPosition=bottom;verticalAlign=top;html=1;shape=mxgraph.basic.rect;fillColor2=none;strokeWidth=0.5;size=20;indent=5;fillColor=#B3FF66;strokeColor=#000000;container=0;" parent="V1e9pzaGmxN9BiFdg47Z-227" vertex="1">
          <mxGeometry x="96.60489041095894" y="65.26315789473676" width="5.504882583170254" height="8.289473684210526" as="geometry" />
        </mxCell>
        <mxCell id="V1e9pzaGmxN9BiFdg47Z-69" value="" style="verticalLabelPosition=bottom;verticalAlign=top;html=1;shape=mxgraph.basic.rect;fillColor2=none;strokeWidth=0.5;size=20;indent=5;fillColor=#B3FF66;strokeColor=#000000;container=0;" parent="V1e9pzaGmxN9BiFdg47Z-227" vertex="1">
          <mxGeometry x="103.94473385518592" y="65.26315789473676" width="5.504882583170254" height="8.289473684210526" as="geometry" />
        </mxCell>
        <mxCell id="V1e9pzaGmxN9BiFdg47Z-70" value="" style="verticalLabelPosition=bottom;verticalAlign=top;html=1;shape=mxgraph.basic.rect;fillColor2=none;strokeWidth=0.5;size=20;indent=5;fillColor=#B3FF66;strokeColor=#000000;container=0;" parent="V1e9pzaGmxN9BiFdg47Z-227" vertex="1">
          <mxGeometry x="111.28457729941294" y="65.26315789473676" width="5.504882583170254" height="8.289473684210526" as="geometry" />
        </mxCell>
        <mxCell id="V1e9pzaGmxN9BiFdg47Z-71" value="" style="verticalLabelPosition=bottom;verticalAlign=top;html=1;shape=mxgraph.basic.rect;fillColor2=none;strokeWidth=0.5;size=20;indent=5;fillColor=#B3FF66;strokeColor=#000000;container=0;" parent="V1e9pzaGmxN9BiFdg47Z-227" vertex="1">
          <mxGeometry x="118.62442074363997" y="65.26315789473676" width="5.504882583170254" height="8.289473684210526" as="geometry" />
        </mxCell>
        <mxCell id="V1e9pzaGmxN9BiFdg47Z-72" value="" style="verticalLabelPosition=bottom;verticalAlign=top;html=1;shape=mxgraph.basic.rect;fillColor2=none;strokeWidth=0.5;size=20;indent=5;fillColor=#B3FF66;strokeColor=#000000;container=0;" parent="V1e9pzaGmxN9BiFdg47Z-227" vertex="1">
          <mxGeometry x="23.206455968688942" y="76.31578947368416" width="5.504882583170254" height="8.289473684210526" as="geometry" />
        </mxCell>
        <mxCell id="V1e9pzaGmxN9BiFdg47Z-73" value="" style="verticalLabelPosition=bottom;verticalAlign=top;html=1;shape=mxgraph.basic.rect;fillColor2=none;strokeWidth=0.5;size=20;indent=5;fillColor=#B3FF66;strokeColor=#000000;container=0;" parent="V1e9pzaGmxN9BiFdg47Z-227" vertex="1">
          <mxGeometry x="30.5462994129158" y="76.31578947368416" width="5.504882583170254" height="8.289473684210526" as="geometry" />
        </mxCell>
        <mxCell id="V1e9pzaGmxN9BiFdg47Z-74" value="" style="verticalLabelPosition=bottom;verticalAlign=top;html=1;shape=mxgraph.basic.rect;fillColor2=none;strokeWidth=0.5;size=20;indent=5;fillColor=#B3FF66;strokeColor=#000000;container=0;" parent="V1e9pzaGmxN9BiFdg47Z-227" vertex="1">
          <mxGeometry x="37.886142857142886" y="76.31578947368416" width="5.504882583170254" height="8.289473684210526" as="geometry" />
        </mxCell>
        <mxCell id="V1e9pzaGmxN9BiFdg47Z-75" value="" style="verticalLabelPosition=bottom;verticalAlign=top;html=1;shape=mxgraph.basic.rect;fillColor2=none;strokeWidth=0.5;size=20;indent=5;fillColor=#B3FF66;strokeColor=#000000;container=0;" parent="V1e9pzaGmxN9BiFdg47Z-227" vertex="1">
          <mxGeometry x="45.22598630136997" y="76.31578947368416" width="5.504882583170254" height="8.289473684210526" as="geometry" />
        </mxCell>
        <mxCell id="V1e9pzaGmxN9BiFdg47Z-76" value="" style="verticalLabelPosition=bottom;verticalAlign=top;html=1;shape=mxgraph.basic.rect;fillColor2=none;strokeWidth=0.5;size=20;indent=5;fillColor=#B3FF66;strokeColor=#000000;container=0;" parent="V1e9pzaGmxN9BiFdg47Z-227" vertex="1">
          <mxGeometry x="52.56582974559683" y="76.31578947368416" width="5.504882583170254" height="8.289473684210526" as="geometry" />
        </mxCell>
        <mxCell id="V1e9pzaGmxN9BiFdg47Z-77" value="" style="verticalLabelPosition=bottom;verticalAlign=top;html=1;shape=mxgraph.basic.rect;fillColor2=none;strokeWidth=0.5;size=20;indent=5;fillColor=#B3FF66;strokeColor=#000000;container=0;" parent="V1e9pzaGmxN9BiFdg47Z-227" vertex="1">
          <mxGeometry x="59.905673189823915" y="76.31578947368416" width="5.504882583170254" height="8.289473684210526" as="geometry" />
        </mxCell>
        <mxCell id="V1e9pzaGmxN9BiFdg47Z-78" value="" style="verticalLabelPosition=bottom;verticalAlign=top;html=1;shape=mxgraph.basic.rect;fillColor2=none;strokeWidth=0.5;size=20;indent=5;fillColor=#B3FF66;strokeColor=#000000;container=0;" parent="V1e9pzaGmxN9BiFdg47Z-227" vertex="1">
          <mxGeometry x="67.245516634051" y="76.31578947368416" width="5.504882583170254" height="8.289473684210526" as="geometry" />
        </mxCell>
        <mxCell id="V1e9pzaGmxN9BiFdg47Z-79" value="" style="verticalLabelPosition=bottom;verticalAlign=top;html=1;shape=mxgraph.basic.rect;fillColor2=none;strokeWidth=0.5;size=20;indent=5;fillColor=#B3FF66;strokeColor=#000000;container=0;" parent="V1e9pzaGmxN9BiFdg47Z-227" vertex="1">
          <mxGeometry x="74.58536007827786" y="76.31578947368416" width="5.504882583170254" height="8.289473684210526" as="geometry" />
        </mxCell>
        <mxCell id="V1e9pzaGmxN9BiFdg47Z-80" value="" style="verticalLabelPosition=bottom;verticalAlign=top;html=1;shape=mxgraph.basic.rect;fillColor2=none;strokeWidth=0.5;size=20;indent=5;fillColor=#B3FF66;strokeColor=#000000;container=0;" parent="V1e9pzaGmxN9BiFdg47Z-227" vertex="1">
          <mxGeometry x="81.92520352250489" y="76.31578947368416" width="5.504882583170254" height="8.289473684210526" as="geometry" />
        </mxCell>
        <mxCell id="V1e9pzaGmxN9BiFdg47Z-81" value="" style="verticalLabelPosition=bottom;verticalAlign=top;html=1;shape=mxgraph.basic.rect;fillColor2=none;strokeWidth=0.5;size=20;indent=5;fillColor=#B3FF66;strokeColor=#000000;container=0;" parent="V1e9pzaGmxN9BiFdg47Z-227" vertex="1">
          <mxGeometry x="89.26504696673192" y="76.31578947368416" width="5.504882583170254" height="8.289473684210526" as="geometry" />
        </mxCell>
        <mxCell id="V1e9pzaGmxN9BiFdg47Z-82" value="" style="verticalLabelPosition=bottom;verticalAlign=top;html=1;shape=mxgraph.basic.rect;fillColor2=none;strokeWidth=0.5;size=20;indent=5;fillColor=#B3FF66;strokeColor=#000000;container=0;" parent="V1e9pzaGmxN9BiFdg47Z-227" vertex="1">
          <mxGeometry x="96.60489041095894" y="76.31578947368416" width="5.504882583170254" height="8.289473684210526" as="geometry" />
        </mxCell>
        <mxCell id="V1e9pzaGmxN9BiFdg47Z-83" value="" style="verticalLabelPosition=bottom;verticalAlign=top;html=1;shape=mxgraph.basic.rect;fillColor2=none;strokeWidth=0.5;size=20;indent=5;fillColor=#B3FF66;strokeColor=#000000;container=0;" parent="V1e9pzaGmxN9BiFdg47Z-227" vertex="1">
          <mxGeometry x="103.94473385518592" y="76.31578947368416" width="5.504882583170254" height="8.289473684210526" as="geometry" />
        </mxCell>
        <mxCell id="V1e9pzaGmxN9BiFdg47Z-84" value="" style="verticalLabelPosition=bottom;verticalAlign=top;html=1;shape=mxgraph.basic.rect;fillColor2=none;strokeWidth=0.5;size=20;indent=5;fillColor=#B3FF66;strokeColor=#000000;container=0;" parent="V1e9pzaGmxN9BiFdg47Z-227" vertex="1">
          <mxGeometry x="111.28457729941294" y="76.31578947368416" width="5.504882583170254" height="8.289473684210526" as="geometry" />
        </mxCell>
        <mxCell id="V1e9pzaGmxN9BiFdg47Z-85" value="" style="verticalLabelPosition=bottom;verticalAlign=top;html=1;shape=mxgraph.basic.rect;fillColor2=none;strokeWidth=0.5;size=20;indent=5;fillColor=#B3FF66;strokeColor=#000000;container=0;" parent="V1e9pzaGmxN9BiFdg47Z-227" vertex="1">
          <mxGeometry x="118.62442074363997" y="76.31578947368416" width="5.504882583170254" height="8.289473684210526" as="geometry" />
        </mxCell>
        <mxCell id="V1e9pzaGmxN9BiFdg47Z-86" value="" style="verticalLabelPosition=bottom;verticalAlign=top;html=1;shape=mxgraph.basic.rect;fillColor2=none;strokeWidth=0.5;size=20;indent=5;fillColor=#B3FF66;strokeColor=#000000;container=0;" parent="V1e9pzaGmxN9BiFdg47Z-227" vertex="1">
          <mxGeometry x="23.206455968688942" y="87.36842105263156" width="5.504882583170254" height="8.289473684210526" as="geometry" />
        </mxCell>
        <mxCell id="V1e9pzaGmxN9BiFdg47Z-87" value="" style="verticalLabelPosition=bottom;verticalAlign=top;html=1;shape=mxgraph.basic.rect;fillColor2=none;strokeWidth=0.5;size=20;indent=5;fillColor=#B3FF66;strokeColor=#000000;container=0;" parent="V1e9pzaGmxN9BiFdg47Z-227" vertex="1">
          <mxGeometry x="30.5462994129158" y="87.36842105263156" width="5.504882583170254" height="8.289473684210526" as="geometry" />
        </mxCell>
        <mxCell id="V1e9pzaGmxN9BiFdg47Z-88" value="" style="verticalLabelPosition=bottom;verticalAlign=top;html=1;shape=mxgraph.basic.rect;fillColor2=none;strokeWidth=0.5;size=20;indent=5;fillColor=#B3FF66;strokeColor=#000000;container=0;" parent="V1e9pzaGmxN9BiFdg47Z-227" vertex="1">
          <mxGeometry x="37.886142857142886" y="87.36842105263156" width="5.504882583170254" height="8.289473684210526" as="geometry" />
        </mxCell>
        <mxCell id="V1e9pzaGmxN9BiFdg47Z-89" value="" style="verticalLabelPosition=bottom;verticalAlign=top;html=1;shape=mxgraph.basic.rect;fillColor2=none;strokeWidth=0.5;size=20;indent=5;fillColor=#B3FF66;strokeColor=#000000;container=0;" parent="V1e9pzaGmxN9BiFdg47Z-227" vertex="1">
          <mxGeometry x="45.22598630136997" y="87.36842105263156" width="5.504882583170254" height="8.289473684210526" as="geometry" />
        </mxCell>
        <mxCell id="V1e9pzaGmxN9BiFdg47Z-90" value="" style="verticalLabelPosition=bottom;verticalAlign=top;html=1;shape=mxgraph.basic.rect;fillColor2=none;strokeWidth=0.5;size=20;indent=5;fillColor=#B3FF66;strokeColor=#000000;container=0;" parent="V1e9pzaGmxN9BiFdg47Z-227" vertex="1">
          <mxGeometry x="52.56582974559683" y="87.36842105263156" width="5.504882583170254" height="8.289473684210526" as="geometry" />
        </mxCell>
        <mxCell id="V1e9pzaGmxN9BiFdg47Z-91" value="" style="verticalLabelPosition=bottom;verticalAlign=top;html=1;shape=mxgraph.basic.rect;fillColor2=none;strokeWidth=0.5;size=20;indent=5;fillColor=#B3FF66;strokeColor=#000000;container=0;" parent="V1e9pzaGmxN9BiFdg47Z-227" vertex="1">
          <mxGeometry x="59.905673189823915" y="87.36842105263156" width="5.504882583170254" height="8.289473684210526" as="geometry" />
        </mxCell>
        <mxCell id="V1e9pzaGmxN9BiFdg47Z-92" value="" style="verticalLabelPosition=bottom;verticalAlign=top;html=1;shape=mxgraph.basic.rect;fillColor2=none;strokeWidth=0.5;size=20;indent=5;fillColor=#B3FF66;strokeColor=#000000;container=0;" parent="V1e9pzaGmxN9BiFdg47Z-227" vertex="1">
          <mxGeometry x="67.245516634051" y="87.36842105263156" width="5.504882583170254" height="8.289473684210526" as="geometry" />
        </mxCell>
        <mxCell id="V1e9pzaGmxN9BiFdg47Z-93" value="" style="verticalLabelPosition=bottom;verticalAlign=top;html=1;shape=mxgraph.basic.rect;fillColor2=none;strokeWidth=0.5;size=20;indent=5;fillColor=#B3FF66;strokeColor=#000000;container=0;" parent="V1e9pzaGmxN9BiFdg47Z-227" vertex="1">
          <mxGeometry x="74.58536007827786" y="87.36842105263156" width="5.504882583170254" height="8.289473684210526" as="geometry" />
        </mxCell>
        <mxCell id="V1e9pzaGmxN9BiFdg47Z-94" value="" style="verticalLabelPosition=bottom;verticalAlign=top;html=1;shape=mxgraph.basic.rect;fillColor2=none;strokeWidth=0.5;size=20;indent=5;fillColor=#B3FF66;strokeColor=#000000;container=0;" parent="V1e9pzaGmxN9BiFdg47Z-227" vertex="1">
          <mxGeometry x="81.92520352250489" y="87.36842105263156" width="5.504882583170254" height="8.289473684210526" as="geometry" />
        </mxCell>
        <mxCell id="V1e9pzaGmxN9BiFdg47Z-95" value="" style="verticalLabelPosition=bottom;verticalAlign=top;html=1;shape=mxgraph.basic.rect;fillColor2=none;strokeWidth=0.5;size=20;indent=5;fillColor=#B3FF66;strokeColor=#000000;container=0;" parent="V1e9pzaGmxN9BiFdg47Z-227" vertex="1">
          <mxGeometry x="89.26504696673192" y="87.36842105263156" width="5.504882583170254" height="8.289473684210526" as="geometry" />
        </mxCell>
        <mxCell id="V1e9pzaGmxN9BiFdg47Z-96" value="" style="verticalLabelPosition=bottom;verticalAlign=top;html=1;shape=mxgraph.basic.rect;fillColor2=none;strokeWidth=0.5;size=20;indent=5;fillColor=#B3FF66;strokeColor=#000000;container=0;" parent="V1e9pzaGmxN9BiFdg47Z-227" vertex="1">
          <mxGeometry x="96.60489041095894" y="87.36842105263156" width="5.504882583170254" height="8.289473684210526" as="geometry" />
        </mxCell>
        <mxCell id="V1e9pzaGmxN9BiFdg47Z-97" value="" style="verticalLabelPosition=bottom;verticalAlign=top;html=1;shape=mxgraph.basic.rect;fillColor2=none;strokeWidth=0.5;size=20;indent=5;fillColor=#B3FF66;strokeColor=#000000;container=0;" parent="V1e9pzaGmxN9BiFdg47Z-227" vertex="1">
          <mxGeometry x="103.94473385518592" y="87.36842105263156" width="5.504882583170254" height="8.289473684210526" as="geometry" />
        </mxCell>
        <mxCell id="V1e9pzaGmxN9BiFdg47Z-98" value="" style="verticalLabelPosition=bottom;verticalAlign=top;html=1;shape=mxgraph.basic.rect;fillColor2=none;strokeWidth=0.5;size=20;indent=5;fillColor=#B3FF66;strokeColor=#000000;container=0;" parent="V1e9pzaGmxN9BiFdg47Z-227" vertex="1">
          <mxGeometry x="111.28457729941294" y="87.36842105263156" width="5.504882583170254" height="8.289473684210526" as="geometry" />
        </mxCell>
        <mxCell id="V1e9pzaGmxN9BiFdg47Z-99" value="" style="verticalLabelPosition=bottom;verticalAlign=top;html=1;shape=mxgraph.basic.rect;fillColor2=none;strokeWidth=0.5;size=20;indent=5;fillColor=#B3FF66;strokeColor=#000000;container=0;" parent="V1e9pzaGmxN9BiFdg47Z-227" vertex="1">
          <mxGeometry x="118.62442074363997" y="87.36842105263156" width="5.504882583170254" height="8.289473684210526" as="geometry" />
        </mxCell>
        <mxCell id="V1e9pzaGmxN9BiFdg47Z-100" value="" style="verticalLabelPosition=bottom;verticalAlign=top;html=1;shape=mxgraph.basic.rect;fillColor2=none;strokeWidth=0.5;size=20;indent=5;fillColor=#B3FF66;strokeColor=#000000;container=0;" parent="V1e9pzaGmxN9BiFdg47Z-227" vertex="1">
          <mxGeometry x="23.206455968688942" y="98.42105263157885" width="5.504882583170254" height="8.289473684210526" as="geometry" />
        </mxCell>
        <mxCell id="V1e9pzaGmxN9BiFdg47Z-101" value="" style="verticalLabelPosition=bottom;verticalAlign=top;html=1;shape=mxgraph.basic.rect;fillColor2=none;strokeWidth=0.5;size=20;indent=5;fillColor=#B3FF66;strokeColor=#000000;container=0;" parent="V1e9pzaGmxN9BiFdg47Z-227" vertex="1">
          <mxGeometry x="30.5462994129158" y="98.42105263157885" width="5.504882583170254" height="8.289473684210526" as="geometry" />
        </mxCell>
        <mxCell id="V1e9pzaGmxN9BiFdg47Z-102" value="" style="verticalLabelPosition=bottom;verticalAlign=top;html=1;shape=mxgraph.basic.rect;fillColor2=none;strokeWidth=0.5;size=20;indent=5;fillColor=#B3FF66;strokeColor=#000000;container=0;" parent="V1e9pzaGmxN9BiFdg47Z-227" vertex="1">
          <mxGeometry x="37.886142857142886" y="98.42105263157885" width="5.504882583170254" height="8.289473684210526" as="geometry" />
        </mxCell>
        <mxCell id="V1e9pzaGmxN9BiFdg47Z-103" value="" style="verticalLabelPosition=bottom;verticalAlign=top;html=1;shape=mxgraph.basic.rect;fillColor2=none;strokeWidth=0.5;size=20;indent=5;fillColor=#B3FF66;strokeColor=#000000;container=0;" parent="V1e9pzaGmxN9BiFdg47Z-227" vertex="1">
          <mxGeometry x="45.22598630136997" y="98.42105263157885" width="5.504882583170254" height="8.289473684210526" as="geometry" />
        </mxCell>
        <mxCell id="V1e9pzaGmxN9BiFdg47Z-104" value="" style="verticalLabelPosition=bottom;verticalAlign=top;html=1;shape=mxgraph.basic.rect;fillColor2=none;strokeWidth=0.5;size=20;indent=5;fillColor=#B3FF66;strokeColor=#000000;container=0;" parent="V1e9pzaGmxN9BiFdg47Z-227" vertex="1">
          <mxGeometry x="52.56582974559683" y="98.42105263157885" width="5.504882583170254" height="8.289473684210526" as="geometry" />
        </mxCell>
        <mxCell id="V1e9pzaGmxN9BiFdg47Z-105" value="" style="verticalLabelPosition=bottom;verticalAlign=top;html=1;shape=mxgraph.basic.rect;fillColor2=none;strokeWidth=0.5;size=20;indent=5;fillColor=#B3FF66;strokeColor=#000000;container=0;" parent="V1e9pzaGmxN9BiFdg47Z-227" vertex="1">
          <mxGeometry x="59.905673189823915" y="98.42105263157885" width="5.504882583170254" height="8.289473684210526" as="geometry" />
        </mxCell>
        <mxCell id="V1e9pzaGmxN9BiFdg47Z-106" value="" style="verticalLabelPosition=bottom;verticalAlign=top;html=1;shape=mxgraph.basic.rect;fillColor2=none;strokeWidth=0.5;size=20;indent=5;fillColor=#B3FF66;strokeColor=#000000;container=0;" parent="V1e9pzaGmxN9BiFdg47Z-227" vertex="1">
          <mxGeometry x="67.245516634051" y="98.42105263157885" width="5.504882583170254" height="8.289473684210526" as="geometry" />
        </mxCell>
        <mxCell id="V1e9pzaGmxN9BiFdg47Z-107" value="" style="verticalLabelPosition=bottom;verticalAlign=top;html=1;shape=mxgraph.basic.rect;fillColor2=none;strokeWidth=0.5;size=20;indent=5;fillColor=#B3FF66;strokeColor=#000000;container=0;" parent="V1e9pzaGmxN9BiFdg47Z-227" vertex="1">
          <mxGeometry x="74.58536007827786" y="98.42105263157885" width="5.504882583170254" height="8.289473684210526" as="geometry" />
        </mxCell>
        <mxCell id="V1e9pzaGmxN9BiFdg47Z-108" value="" style="verticalLabelPosition=bottom;verticalAlign=top;html=1;shape=mxgraph.basic.rect;fillColor2=none;strokeWidth=0.5;size=20;indent=5;fillColor=#B3FF66;strokeColor=#000000;container=0;" parent="V1e9pzaGmxN9BiFdg47Z-227" vertex="1">
          <mxGeometry x="81.92520352250489" y="98.42105263157885" width="5.504882583170254" height="8.289473684210526" as="geometry" />
        </mxCell>
        <mxCell id="V1e9pzaGmxN9BiFdg47Z-109" value="" style="verticalLabelPosition=bottom;verticalAlign=top;html=1;shape=mxgraph.basic.rect;fillColor2=none;strokeWidth=0.5;size=20;indent=5;fillColor=#B3FF66;strokeColor=#000000;container=0;" parent="V1e9pzaGmxN9BiFdg47Z-227" vertex="1">
          <mxGeometry x="89.26504696673192" y="98.42105263157885" width="5.504882583170254" height="8.289473684210526" as="geometry" />
        </mxCell>
        <mxCell id="V1e9pzaGmxN9BiFdg47Z-110" value="" style="verticalLabelPosition=bottom;verticalAlign=top;html=1;shape=mxgraph.basic.rect;fillColor2=none;strokeWidth=0.5;size=20;indent=5;fillColor=#B3FF66;strokeColor=#000000;container=0;" parent="V1e9pzaGmxN9BiFdg47Z-227" vertex="1">
          <mxGeometry x="96.60489041095894" y="98.42105263157885" width="5.504882583170254" height="8.289473684210526" as="geometry" />
        </mxCell>
        <mxCell id="V1e9pzaGmxN9BiFdg47Z-111" value="" style="verticalLabelPosition=bottom;verticalAlign=top;html=1;shape=mxgraph.basic.rect;fillColor2=none;strokeWidth=0.5;size=20;indent=5;fillColor=#B3FF66;strokeColor=#000000;container=0;" parent="V1e9pzaGmxN9BiFdg47Z-227" vertex="1">
          <mxGeometry x="103.94473385518592" y="98.42105263157885" width="5.504882583170254" height="8.289473684210526" as="geometry" />
        </mxCell>
        <mxCell id="V1e9pzaGmxN9BiFdg47Z-112" value="" style="verticalLabelPosition=bottom;verticalAlign=top;html=1;shape=mxgraph.basic.rect;fillColor2=none;strokeWidth=0.5;size=20;indent=5;fillColor=#B3FF66;strokeColor=#000000;container=0;" parent="V1e9pzaGmxN9BiFdg47Z-227" vertex="1">
          <mxGeometry x="111.28457729941294" y="98.42105263157885" width="5.504882583170254" height="8.289473684210526" as="geometry" />
        </mxCell>
        <mxCell id="V1e9pzaGmxN9BiFdg47Z-113" value="" style="verticalLabelPosition=bottom;verticalAlign=top;html=1;shape=mxgraph.basic.rect;fillColor2=none;strokeWidth=0.5;size=20;indent=5;fillColor=#B3FF66;strokeColor=#000000;container=0;" parent="V1e9pzaGmxN9BiFdg47Z-227" vertex="1">
          <mxGeometry x="118.62442074363997" y="98.42105263157885" width="5.504882583170254" height="8.289473684210526" as="geometry" />
        </mxCell>
        <mxCell id="V1e9pzaGmxN9BiFdg47Z-115" value="" style="rounded=0;whiteSpace=wrap;html=1;arcSize=4;imageAspect=0;fillColor=#E8E8BA;container=0;" parent="V1e9pzaGmxN9BiFdg47Z-227" vertex="1">
          <mxGeometry x="154.95664579256356" y="10" width="124.04335420743638" height="132.6315789473684" as="geometry" />
        </mxCell>
        <mxCell id="V1e9pzaGmxN9BiFdg47Z-116" value="&lt;font style=&quot;font-size: 11px;&quot;&gt;Threads&lt;/font&gt;" style="text;html=1;strokeColor=none;fillColor=none;align=center;verticalAlign=middle;whiteSpace=wrap;rounded=0;container=0;fontSize=11;" parent="V1e9pzaGmxN9BiFdg47Z-227" vertex="1">
          <mxGeometry x="163.76445792563607" y="11.657894736842081" width="106.42772994129157" height="16.57894736842105" as="geometry" />
        </mxCell>
        <mxCell id="V1e9pzaGmxN9BiFdg47Z-117" value="" style="rounded=1;whiteSpace=wrap;html=1;fillColor=#dae8fc;strokeColor=#000000;container=0;" parent="V1e9pzaGmxN9BiFdg47Z-227" vertex="1">
          <mxGeometry x="158.6265675146771" y="114.99999999999989" width="116.70351076320938" height="22.105263157894733" as="geometry" />
        </mxCell>
        <mxCell id="V1e9pzaGmxN9BiFdg47Z-118" value="&lt;font style=&quot;font-size: 11px;&quot;&gt;Shared memory&lt;/font&gt;" style="text;html=1;strokeColor=none;fillColor=none;align=center;verticalAlign=middle;whiteSpace=wrap;rounded=0;container=0;fontSize=11;" parent="V1e9pzaGmxN9BiFdg47Z-227" vertex="1">
          <mxGeometry x="170.00332485322895" y="117.76315789473688" width="93.94999608610567" height="16.57894736842105" as="geometry" />
        </mxCell>
        <mxCell id="V1e9pzaGmxN9BiFdg47Z-119" value="" style="verticalLabelPosition=bottom;verticalAlign=top;html=1;shape=mxgraph.basic.rect;fillColor2=none;strokeWidth=0.5;size=20;indent=5;fillColor=#B3FF66;strokeColor=#000000;container=0;" parent="V1e9pzaGmxN9BiFdg47Z-227" vertex="1">
          <mxGeometry x="166.88389138943256" y="32.10526315789468" width="5.504882583170254" height="8.289473684210526" as="geometry" />
        </mxCell>
        <mxCell id="V1e9pzaGmxN9BiFdg47Z-120" value="" style="verticalLabelPosition=bottom;verticalAlign=top;html=1;shape=mxgraph.basic.rect;fillColor2=none;strokeWidth=0.5;size=20;indent=5;fillColor=#B3FF66;strokeColor=#000000;container=0;" parent="V1e9pzaGmxN9BiFdg47Z-227" vertex="1">
          <mxGeometry x="174.22373483365948" y="32.10526315789468" width="5.504882583170254" height="8.289473684210526" as="geometry" />
        </mxCell>
        <mxCell id="V1e9pzaGmxN9BiFdg47Z-121" value="" style="verticalLabelPosition=bottom;verticalAlign=top;html=1;shape=mxgraph.basic.rect;fillColor2=none;strokeWidth=0.5;size=20;indent=5;fillColor=#B3FF66;strokeColor=#000000;container=0;" parent="V1e9pzaGmxN9BiFdg47Z-227" vertex="1">
          <mxGeometry x="181.56357827788656" y="32.10526315789468" width="5.504882583170254" height="8.289473684210526" as="geometry" />
        </mxCell>
        <mxCell id="V1e9pzaGmxN9BiFdg47Z-122" value="" style="verticalLabelPosition=bottom;verticalAlign=top;html=1;shape=mxgraph.basic.rect;fillColor2=none;strokeWidth=0.5;size=20;indent=5;fillColor=#B3FF66;strokeColor=#000000;container=0;" parent="V1e9pzaGmxN9BiFdg47Z-227" vertex="1">
          <mxGeometry x="188.90342172211342" y="32.10526315789468" width="5.504882583170254" height="8.289473684210526" as="geometry" />
        </mxCell>
        <mxCell id="V1e9pzaGmxN9BiFdg47Z-123" value="" style="verticalLabelPosition=bottom;verticalAlign=top;html=1;shape=mxgraph.basic.rect;fillColor2=none;strokeWidth=0.5;size=20;indent=5;fillColor=#B3FF66;strokeColor=#000000;container=0;" parent="V1e9pzaGmxN9BiFdg47Z-227" vertex="1">
          <mxGeometry x="196.24326516634045" y="32.10526315789468" width="5.504882583170254" height="8.289473684210526" as="geometry" />
        </mxCell>
        <mxCell id="V1e9pzaGmxN9BiFdg47Z-124" value="" style="verticalLabelPosition=bottom;verticalAlign=top;html=1;shape=mxgraph.basic.rect;fillColor2=none;strokeWidth=0.5;size=20;indent=5;fillColor=#B3FF66;strokeColor=#000000;container=0;" parent="V1e9pzaGmxN9BiFdg47Z-227" vertex="1">
          <mxGeometry x="203.58310861056748" y="32.10526315789468" width="5.504882583170254" height="8.289473684210526" as="geometry" />
        </mxCell>
        <mxCell id="V1e9pzaGmxN9BiFdg47Z-125" value="" style="verticalLabelPosition=bottom;verticalAlign=top;html=1;shape=mxgraph.basic.rect;fillColor2=none;strokeWidth=0.5;size=20;indent=5;fillColor=#B3FF66;strokeColor=#000000;container=0;" parent="V1e9pzaGmxN9BiFdg47Z-227" vertex="1">
          <mxGeometry x="210.92295205479456" y="32.10526315789468" width="5.504882583170254" height="8.289473684210526" as="geometry" />
        </mxCell>
        <mxCell id="V1e9pzaGmxN9BiFdg47Z-126" value="" style="verticalLabelPosition=bottom;verticalAlign=top;html=1;shape=mxgraph.basic.rect;fillColor2=none;strokeWidth=0.5;size=20;indent=5;fillColor=#B3FF66;strokeColor=#000000;container=0;" parent="V1e9pzaGmxN9BiFdg47Z-227" vertex="1">
          <mxGeometry x="218.26279549902154" y="32.10526315789468" width="5.504882583170254" height="8.289473684210526" as="geometry" />
        </mxCell>
        <mxCell id="V1e9pzaGmxN9BiFdg47Z-127" value="" style="verticalLabelPosition=bottom;verticalAlign=top;html=1;shape=mxgraph.basic.rect;fillColor2=none;strokeWidth=0.5;size=20;indent=5;fillColor=#B3FF66;strokeColor=#000000;container=0;" parent="V1e9pzaGmxN9BiFdg47Z-227" vertex="1">
          <mxGeometry x="225.60263894324856" y="32.10526315789468" width="5.504882583170254" height="8.289473684210526" as="geometry" />
        </mxCell>
        <mxCell id="V1e9pzaGmxN9BiFdg47Z-128" value="" style="verticalLabelPosition=bottom;verticalAlign=top;html=1;shape=mxgraph.basic.rect;fillColor2=none;strokeWidth=0.5;size=20;indent=5;fillColor=#B3FF66;strokeColor=#000000;container=0;" parent="V1e9pzaGmxN9BiFdg47Z-227" vertex="1">
          <mxGeometry x="232.94248238747548" y="32.10526315789468" width="5.504882583170254" height="8.289473684210526" as="geometry" />
        </mxCell>
        <mxCell id="V1e9pzaGmxN9BiFdg47Z-129" value="" style="verticalLabelPosition=bottom;verticalAlign=top;html=1;shape=mxgraph.basic.rect;fillColor2=none;strokeWidth=0.5;size=20;indent=5;fillColor=#B3FF66;strokeColor=#000000;container=0;" parent="V1e9pzaGmxN9BiFdg47Z-227" vertex="1">
          <mxGeometry x="240.28232583170256" y="32.10526315789468" width="5.504882583170254" height="8.289473684210526" as="geometry" />
        </mxCell>
        <mxCell id="V1e9pzaGmxN9BiFdg47Z-130" value="" style="verticalLabelPosition=bottom;verticalAlign=top;html=1;shape=mxgraph.basic.rect;fillColor2=none;strokeWidth=0.5;size=20;indent=5;fillColor=#B3FF66;strokeColor=#000000;container=0;" parent="V1e9pzaGmxN9BiFdg47Z-227" vertex="1">
          <mxGeometry x="247.6221692759296" y="32.10526315789468" width="5.504882583170254" height="8.289473684210526" as="geometry" />
        </mxCell>
        <mxCell id="V1e9pzaGmxN9BiFdg47Z-131" value="" style="verticalLabelPosition=bottom;verticalAlign=top;html=1;shape=mxgraph.basic.rect;fillColor2=none;strokeWidth=0.5;size=20;indent=5;fillColor=#B3FF66;strokeColor=#000000;container=0;" parent="V1e9pzaGmxN9BiFdg47Z-227" vertex="1">
          <mxGeometry x="254.9620127201565" y="32.10526315789468" width="5.504882583170254" height="8.289473684210526" as="geometry" />
        </mxCell>
        <mxCell id="V1e9pzaGmxN9BiFdg47Z-132" value="" style="verticalLabelPosition=bottom;verticalAlign=top;html=1;shape=mxgraph.basic.rect;fillColor2=none;strokeWidth=0.5;size=20;indent=5;fillColor=#B3FF66;strokeColor=#000000;container=0;" parent="V1e9pzaGmxN9BiFdg47Z-227" vertex="1">
          <mxGeometry x="262.3018561643836" y="32.10526315789468" width="5.504882583170254" height="8.289473684210526" as="geometry" />
        </mxCell>
        <mxCell id="V1e9pzaGmxN9BiFdg47Z-133" value="" style="verticalLabelPosition=bottom;verticalAlign=top;html=1;shape=mxgraph.basic.rect;fillColor2=none;strokeWidth=0.5;size=20;indent=5;fillColor=#B3FF66;strokeColor=#000000;container=0;" parent="V1e9pzaGmxN9BiFdg47Z-227" vertex="1">
          <mxGeometry x="167.06738747553817" y="43.15789473684208" width="5.504882583170254" height="8.289473684210526" as="geometry" />
        </mxCell>
        <mxCell id="V1e9pzaGmxN9BiFdg47Z-134" value="" style="verticalLabelPosition=bottom;verticalAlign=top;html=1;shape=mxgraph.basic.rect;fillColor2=none;strokeWidth=0.5;size=20;indent=5;fillColor=#B3FF66;strokeColor=#000000;container=0;" parent="V1e9pzaGmxN9BiFdg47Z-227" vertex="1">
          <mxGeometry x="174.4072309197652" y="43.15789473684208" width="5.504882583170254" height="8.289473684210526" as="geometry" />
        </mxCell>
        <mxCell id="V1e9pzaGmxN9BiFdg47Z-135" value="" style="verticalLabelPosition=bottom;verticalAlign=top;html=1;shape=mxgraph.basic.rect;fillColor2=none;strokeWidth=0.5;size=20;indent=5;fillColor=#B3FF66;strokeColor=#000000;container=0;" parent="V1e9pzaGmxN9BiFdg47Z-227" vertex="1">
          <mxGeometry x="181.74707436399217" y="43.15789473684208" width="5.504882583170254" height="8.289473684210526" as="geometry" />
        </mxCell>
        <mxCell id="V1e9pzaGmxN9BiFdg47Z-136" value="" style="verticalLabelPosition=bottom;verticalAlign=top;html=1;shape=mxgraph.basic.rect;fillColor2=none;strokeWidth=0.5;size=20;indent=5;fillColor=#B3FF66;strokeColor=#000000;container=0;" parent="V1e9pzaGmxN9BiFdg47Z-227" vertex="1">
          <mxGeometry x="189.0869178082192" y="43.15789473684208" width="5.504882583170254" height="8.289473684210526" as="geometry" />
        </mxCell>
        <mxCell id="V1e9pzaGmxN9BiFdg47Z-137" value="" style="verticalLabelPosition=bottom;verticalAlign=top;html=1;shape=mxgraph.basic.rect;fillColor2=none;strokeWidth=0.5;size=20;indent=5;fillColor=#B3FF66;strokeColor=#000000;container=0;" parent="V1e9pzaGmxN9BiFdg47Z-227" vertex="1">
          <mxGeometry x="196.42676125244623" y="43.15789473684208" width="5.504882583170254" height="8.289473684210526" as="geometry" />
        </mxCell>
        <mxCell id="V1e9pzaGmxN9BiFdg47Z-138" value="" style="verticalLabelPosition=bottom;verticalAlign=top;html=1;shape=mxgraph.basic.rect;fillColor2=none;strokeWidth=0.5;size=20;indent=5;fillColor=#B3FF66;strokeColor=#000000;container=0;" parent="V1e9pzaGmxN9BiFdg47Z-227" vertex="1">
          <mxGeometry x="203.7666046966732" y="43.15789473684208" width="5.504882583170254" height="8.289473684210526" as="geometry" />
        </mxCell>
        <mxCell id="V1e9pzaGmxN9BiFdg47Z-139" value="" style="verticalLabelPosition=bottom;verticalAlign=top;html=1;shape=mxgraph.basic.rect;fillColor2=none;strokeWidth=0.5;size=20;indent=5;fillColor=#B3FF66;strokeColor=#000000;container=0;" parent="V1e9pzaGmxN9BiFdg47Z-227" vertex="1">
          <mxGeometry x="211.10644814090028" y="43.15789473684208" width="5.504882583170254" height="8.289473684210526" as="geometry" />
        </mxCell>
        <mxCell id="V1e9pzaGmxN9BiFdg47Z-140" value="" style="verticalLabelPosition=bottom;verticalAlign=top;html=1;shape=mxgraph.basic.rect;fillColor2=none;strokeWidth=0.5;size=20;indent=5;fillColor=#B3FF66;strokeColor=#000000;container=0;" parent="V1e9pzaGmxN9BiFdg47Z-227" vertex="1">
          <mxGeometry x="218.4462915851272" y="43.15789473684208" width="5.504882583170254" height="8.289473684210526" as="geometry" />
        </mxCell>
        <mxCell id="V1e9pzaGmxN9BiFdg47Z-141" value="" style="verticalLabelPosition=bottom;verticalAlign=top;html=1;shape=mxgraph.basic.rect;fillColor2=none;strokeWidth=0.5;size=20;indent=5;fillColor=#B3FF66;strokeColor=#000000;container=0;" parent="V1e9pzaGmxN9BiFdg47Z-227" vertex="1">
          <mxGeometry x="225.7861350293541" y="43.15789473684208" width="5.504882583170254" height="8.289473684210526" as="geometry" />
        </mxCell>
        <mxCell id="V1e9pzaGmxN9BiFdg47Z-142" value="" style="verticalLabelPosition=bottom;verticalAlign=top;html=1;shape=mxgraph.basic.rect;fillColor2=none;strokeWidth=0.5;size=20;indent=5;fillColor=#B3FF66;strokeColor=#000000;container=0;" parent="V1e9pzaGmxN9BiFdg47Z-227" vertex="1">
          <mxGeometry x="233.12597847358126" y="43.15789473684208" width="5.504882583170254" height="8.289473684210526" as="geometry" />
        </mxCell>
        <mxCell id="V1e9pzaGmxN9BiFdg47Z-143" value="" style="verticalLabelPosition=bottom;verticalAlign=top;html=1;shape=mxgraph.basic.rect;fillColor2=none;strokeWidth=0.5;size=20;indent=5;fillColor=#B3FF66;strokeColor=#000000;container=0;" parent="V1e9pzaGmxN9BiFdg47Z-227" vertex="1">
          <mxGeometry x="240.46582191780817" y="43.15789473684208" width="5.504882583170254" height="8.289473684210526" as="geometry" />
        </mxCell>
        <mxCell id="V1e9pzaGmxN9BiFdg47Z-144" value="" style="verticalLabelPosition=bottom;verticalAlign=top;html=1;shape=mxgraph.basic.rect;fillColor2=none;strokeWidth=0.5;size=20;indent=5;fillColor=#B3FF66;strokeColor=#000000;container=0;" parent="V1e9pzaGmxN9BiFdg47Z-227" vertex="1">
          <mxGeometry x="247.80566536203526" y="43.15789473684208" width="5.504882583170254" height="8.289473684210526" as="geometry" />
        </mxCell>
        <mxCell id="V1e9pzaGmxN9BiFdg47Z-145" value="" style="verticalLabelPosition=bottom;verticalAlign=top;html=1;shape=mxgraph.basic.rect;fillColor2=none;strokeWidth=0.5;size=20;indent=5;fillColor=#B3FF66;strokeColor=#000000;container=0;" parent="V1e9pzaGmxN9BiFdg47Z-227" vertex="1">
          <mxGeometry x="255.14550880626223" y="43.15789473684208" width="5.504882583170254" height="8.289473684210526" as="geometry" />
        </mxCell>
        <mxCell id="V1e9pzaGmxN9BiFdg47Z-146" value="" style="verticalLabelPosition=bottom;verticalAlign=top;html=1;shape=mxgraph.basic.rect;fillColor2=none;strokeWidth=0.5;size=20;indent=5;fillColor=#B3FF66;strokeColor=#000000;container=0;" parent="V1e9pzaGmxN9BiFdg47Z-227" vertex="1">
          <mxGeometry x="262.48535225048926" y="43.15789473684208" width="5.504882583170254" height="8.289473684210526" as="geometry" />
        </mxCell>
        <mxCell id="V1e9pzaGmxN9BiFdg47Z-147" value="" style="verticalLabelPosition=bottom;verticalAlign=top;html=1;shape=mxgraph.basic.rect;fillColor2=none;strokeWidth=0.5;size=20;indent=5;fillColor=#B3FF66;strokeColor=#000000;container=0;" parent="V1e9pzaGmxN9BiFdg47Z-227" vertex="1">
          <mxGeometry x="167.06738747553817" y="54.21052631578959" width="5.504882583170254" height="8.289473684210526" as="geometry" />
        </mxCell>
        <mxCell id="V1e9pzaGmxN9BiFdg47Z-148" value="" style="verticalLabelPosition=bottom;verticalAlign=top;html=1;shape=mxgraph.basic.rect;fillColor2=none;strokeWidth=0.5;size=20;indent=5;fillColor=#B3FF66;strokeColor=#000000;container=0;" parent="V1e9pzaGmxN9BiFdg47Z-227" vertex="1">
          <mxGeometry x="174.4072309197652" y="54.21052631578959" width="5.504882583170254" height="8.289473684210526" as="geometry" />
        </mxCell>
        <mxCell id="V1e9pzaGmxN9BiFdg47Z-149" value="" style="verticalLabelPosition=bottom;verticalAlign=top;html=1;shape=mxgraph.basic.rect;fillColor2=none;strokeWidth=0.5;size=20;indent=5;fillColor=#B3FF66;strokeColor=#000000;container=0;" parent="V1e9pzaGmxN9BiFdg47Z-227" vertex="1">
          <mxGeometry x="181.74707436399217" y="54.21052631578959" width="5.504882583170254" height="8.289473684210526" as="geometry" />
        </mxCell>
        <mxCell id="V1e9pzaGmxN9BiFdg47Z-150" value="" style="verticalLabelPosition=bottom;verticalAlign=top;html=1;shape=mxgraph.basic.rect;fillColor2=none;strokeWidth=0.5;size=20;indent=5;fillColor=#B3FF66;strokeColor=#000000;container=0;" parent="V1e9pzaGmxN9BiFdg47Z-227" vertex="1">
          <mxGeometry x="189.0869178082192" y="54.21052631578959" width="5.504882583170254" height="8.289473684210526" as="geometry" />
        </mxCell>
        <mxCell id="V1e9pzaGmxN9BiFdg47Z-151" value="" style="verticalLabelPosition=bottom;verticalAlign=top;html=1;shape=mxgraph.basic.rect;fillColor2=none;strokeWidth=0.5;size=20;indent=5;fillColor=#B3FF66;strokeColor=#000000;container=0;" parent="V1e9pzaGmxN9BiFdg47Z-227" vertex="1">
          <mxGeometry x="196.42676125244623" y="54.21052631578959" width="5.504882583170254" height="8.289473684210526" as="geometry" />
        </mxCell>
        <mxCell id="V1e9pzaGmxN9BiFdg47Z-152" value="" style="verticalLabelPosition=bottom;verticalAlign=top;html=1;shape=mxgraph.basic.rect;fillColor2=none;strokeWidth=0.5;size=20;indent=5;fillColor=#B3FF66;strokeColor=#000000;container=0;" parent="V1e9pzaGmxN9BiFdg47Z-227" vertex="1">
          <mxGeometry x="203.7666046966732" y="54.21052631578959" width="5.504882583170254" height="8.289473684210526" as="geometry" />
        </mxCell>
        <mxCell id="V1e9pzaGmxN9BiFdg47Z-153" value="" style="verticalLabelPosition=bottom;verticalAlign=top;html=1;shape=mxgraph.basic.rect;fillColor2=none;strokeWidth=0.5;size=20;indent=5;fillColor=#B3FF66;strokeColor=#000000;container=0;" parent="V1e9pzaGmxN9BiFdg47Z-227" vertex="1">
          <mxGeometry x="211.10644814090028" y="54.21052631578959" width="5.504882583170254" height="8.289473684210526" as="geometry" />
        </mxCell>
        <mxCell id="V1e9pzaGmxN9BiFdg47Z-154" value="" style="verticalLabelPosition=bottom;verticalAlign=top;html=1;shape=mxgraph.basic.rect;fillColor2=none;strokeWidth=0.5;size=20;indent=5;fillColor=#B3FF66;strokeColor=#000000;container=0;" parent="V1e9pzaGmxN9BiFdg47Z-227" vertex="1">
          <mxGeometry x="218.4462915851272" y="54.21052631578959" width="5.504882583170254" height="8.289473684210526" as="geometry" />
        </mxCell>
        <mxCell id="V1e9pzaGmxN9BiFdg47Z-155" value="" style="verticalLabelPosition=bottom;verticalAlign=top;html=1;shape=mxgraph.basic.rect;fillColor2=none;strokeWidth=0.5;size=20;indent=5;fillColor=#B3FF66;strokeColor=#000000;container=0;" parent="V1e9pzaGmxN9BiFdg47Z-227" vertex="1">
          <mxGeometry x="225.7861350293541" y="54.21052631578959" width="5.504882583170254" height="8.289473684210526" as="geometry" />
        </mxCell>
        <mxCell id="V1e9pzaGmxN9BiFdg47Z-156" value="" style="verticalLabelPosition=bottom;verticalAlign=top;html=1;shape=mxgraph.basic.rect;fillColor2=none;strokeWidth=0.5;size=20;indent=5;fillColor=#B3FF66;strokeColor=#000000;container=0;" parent="V1e9pzaGmxN9BiFdg47Z-227" vertex="1">
          <mxGeometry x="233.12597847358126" y="54.21052631578959" width="5.504882583170254" height="8.289473684210526" as="geometry" />
        </mxCell>
        <mxCell id="V1e9pzaGmxN9BiFdg47Z-157" value="" style="verticalLabelPosition=bottom;verticalAlign=top;html=1;shape=mxgraph.basic.rect;fillColor2=none;strokeWidth=0.5;size=20;indent=5;fillColor=#B3FF66;strokeColor=#000000;container=0;" parent="V1e9pzaGmxN9BiFdg47Z-227" vertex="1">
          <mxGeometry x="240.46582191780817" y="54.21052631578959" width="5.504882583170254" height="8.289473684210526" as="geometry" />
        </mxCell>
        <mxCell id="V1e9pzaGmxN9BiFdg47Z-158" value="" style="verticalLabelPosition=bottom;verticalAlign=top;html=1;shape=mxgraph.basic.rect;fillColor2=none;strokeWidth=0.5;size=20;indent=5;fillColor=#B3FF66;strokeColor=#000000;container=0;" parent="V1e9pzaGmxN9BiFdg47Z-227" vertex="1">
          <mxGeometry x="247.80566536203526" y="54.21052631578959" width="5.504882583170254" height="8.289473684210526" as="geometry" />
        </mxCell>
        <mxCell id="V1e9pzaGmxN9BiFdg47Z-159" value="" style="verticalLabelPosition=bottom;verticalAlign=top;html=1;shape=mxgraph.basic.rect;fillColor2=none;strokeWidth=0.5;size=20;indent=5;fillColor=#B3FF66;strokeColor=#000000;container=0;" parent="V1e9pzaGmxN9BiFdg47Z-227" vertex="1">
          <mxGeometry x="255.14550880626223" y="54.21052631578959" width="5.504882583170254" height="8.289473684210526" as="geometry" />
        </mxCell>
        <mxCell id="V1e9pzaGmxN9BiFdg47Z-160" value="" style="verticalLabelPosition=bottom;verticalAlign=top;html=1;shape=mxgraph.basic.rect;fillColor2=none;strokeWidth=0.5;size=20;indent=5;fillColor=#B3FF66;strokeColor=#000000;container=0;" parent="V1e9pzaGmxN9BiFdg47Z-227" vertex="1">
          <mxGeometry x="262.48535225048926" y="54.21052631578959" width="5.504882583170254" height="8.289473684210526" as="geometry" />
        </mxCell>
        <mxCell id="V1e9pzaGmxN9BiFdg47Z-161" value="" style="verticalLabelPosition=bottom;verticalAlign=top;html=1;shape=mxgraph.basic.rect;fillColor2=none;strokeWidth=0.5;size=20;indent=5;fillColor=#B3FF66;strokeColor=#000000;container=0;" parent="V1e9pzaGmxN9BiFdg47Z-227" vertex="1">
          <mxGeometry x="167.06738747553817" y="65.26315789473676" width="5.504882583170254" height="8.289473684210526" as="geometry" />
        </mxCell>
        <mxCell id="V1e9pzaGmxN9BiFdg47Z-162" value="" style="verticalLabelPosition=bottom;verticalAlign=top;html=1;shape=mxgraph.basic.rect;fillColor2=none;strokeWidth=0.5;size=20;indent=5;fillColor=#B3FF66;strokeColor=#000000;container=0;" parent="V1e9pzaGmxN9BiFdg47Z-227" vertex="1">
          <mxGeometry x="174.4072309197652" y="65.26315789473676" width="5.504882583170254" height="8.289473684210526" as="geometry" />
        </mxCell>
        <mxCell id="V1e9pzaGmxN9BiFdg47Z-163" value="" style="verticalLabelPosition=bottom;verticalAlign=top;html=1;shape=mxgraph.basic.rect;fillColor2=none;strokeWidth=0.5;size=20;indent=5;fillColor=#B3FF66;strokeColor=#000000;container=0;" parent="V1e9pzaGmxN9BiFdg47Z-227" vertex="1">
          <mxGeometry x="181.74707436399217" y="65.26315789473676" width="5.504882583170254" height="8.289473684210526" as="geometry" />
        </mxCell>
        <mxCell id="V1e9pzaGmxN9BiFdg47Z-164" value="" style="verticalLabelPosition=bottom;verticalAlign=top;html=1;shape=mxgraph.basic.rect;fillColor2=none;strokeWidth=0.5;size=20;indent=5;fillColor=#B3FF66;strokeColor=#000000;container=0;" parent="V1e9pzaGmxN9BiFdg47Z-227" vertex="1">
          <mxGeometry x="189.0869178082192" y="65.26315789473676" width="5.504882583170254" height="8.289473684210526" as="geometry" />
        </mxCell>
        <mxCell id="V1e9pzaGmxN9BiFdg47Z-165" value="" style="verticalLabelPosition=bottom;verticalAlign=top;html=1;shape=mxgraph.basic.rect;fillColor2=none;strokeWidth=0.5;size=20;indent=5;fillColor=#B3FF66;strokeColor=#000000;container=0;" parent="V1e9pzaGmxN9BiFdg47Z-227" vertex="1">
          <mxGeometry x="196.42676125244623" y="65.26315789473676" width="5.504882583170254" height="8.289473684210526" as="geometry" />
        </mxCell>
        <mxCell id="V1e9pzaGmxN9BiFdg47Z-166" value="" style="verticalLabelPosition=bottom;verticalAlign=top;html=1;shape=mxgraph.basic.rect;fillColor2=none;strokeWidth=0.5;size=20;indent=5;fillColor=#B3FF66;strokeColor=#000000;container=0;" parent="V1e9pzaGmxN9BiFdg47Z-227" vertex="1">
          <mxGeometry x="203.7666046966732" y="65.26315789473676" width="5.504882583170254" height="8.289473684210526" as="geometry" />
        </mxCell>
        <mxCell id="V1e9pzaGmxN9BiFdg47Z-167" value="" style="verticalLabelPosition=bottom;verticalAlign=top;html=1;shape=mxgraph.basic.rect;fillColor2=none;strokeWidth=0.5;size=20;indent=5;fillColor=#B3FF66;strokeColor=#000000;container=0;" parent="V1e9pzaGmxN9BiFdg47Z-227" vertex="1">
          <mxGeometry x="211.10644814090028" y="65.26315789473676" width="5.504882583170254" height="8.289473684210526" as="geometry" />
        </mxCell>
        <mxCell id="V1e9pzaGmxN9BiFdg47Z-168" value="" style="verticalLabelPosition=bottom;verticalAlign=top;html=1;shape=mxgraph.basic.rect;fillColor2=none;strokeWidth=0.5;size=20;indent=5;fillColor=#B3FF66;strokeColor=#000000;container=0;" parent="V1e9pzaGmxN9BiFdg47Z-227" vertex="1">
          <mxGeometry x="218.4462915851272" y="65.26315789473676" width="5.504882583170254" height="8.289473684210526" as="geometry" />
        </mxCell>
        <mxCell id="V1e9pzaGmxN9BiFdg47Z-169" value="" style="verticalLabelPosition=bottom;verticalAlign=top;html=1;shape=mxgraph.basic.rect;fillColor2=none;strokeWidth=0.5;size=20;indent=5;fillColor=#B3FF66;strokeColor=#000000;container=0;" parent="V1e9pzaGmxN9BiFdg47Z-227" vertex="1">
          <mxGeometry x="225.7861350293541" y="65.26315789473676" width="5.504882583170254" height="8.289473684210526" as="geometry" />
        </mxCell>
        <mxCell id="V1e9pzaGmxN9BiFdg47Z-170" value="" style="verticalLabelPosition=bottom;verticalAlign=top;html=1;shape=mxgraph.basic.rect;fillColor2=none;strokeWidth=0.5;size=20;indent=5;fillColor=#B3FF66;strokeColor=#000000;container=0;" parent="V1e9pzaGmxN9BiFdg47Z-227" vertex="1">
          <mxGeometry x="233.12597847358126" y="65.26315789473676" width="5.504882583170254" height="8.289473684210526" as="geometry" />
        </mxCell>
        <mxCell id="V1e9pzaGmxN9BiFdg47Z-171" value="" style="verticalLabelPosition=bottom;verticalAlign=top;html=1;shape=mxgraph.basic.rect;fillColor2=none;strokeWidth=0.5;size=20;indent=5;fillColor=#B3FF66;strokeColor=#000000;container=0;" parent="V1e9pzaGmxN9BiFdg47Z-227" vertex="1">
          <mxGeometry x="240.46582191780817" y="65.26315789473676" width="5.504882583170254" height="8.289473684210526" as="geometry" />
        </mxCell>
        <mxCell id="V1e9pzaGmxN9BiFdg47Z-172" value="" style="verticalLabelPosition=bottom;verticalAlign=top;html=1;shape=mxgraph.basic.rect;fillColor2=none;strokeWidth=0.5;size=20;indent=5;fillColor=#B3FF66;strokeColor=#000000;container=0;" parent="V1e9pzaGmxN9BiFdg47Z-227" vertex="1">
          <mxGeometry x="247.80566536203526" y="65.26315789473676" width="5.504882583170254" height="8.289473684210526" as="geometry" />
        </mxCell>
        <mxCell id="V1e9pzaGmxN9BiFdg47Z-173" value="" style="verticalLabelPosition=bottom;verticalAlign=top;html=1;shape=mxgraph.basic.rect;fillColor2=none;strokeWidth=0.5;size=20;indent=5;fillColor=#B3FF66;strokeColor=#000000;container=0;" parent="V1e9pzaGmxN9BiFdg47Z-227" vertex="1">
          <mxGeometry x="255.14550880626223" y="65.26315789473676" width="5.504882583170254" height="8.289473684210526" as="geometry" />
        </mxCell>
        <mxCell id="V1e9pzaGmxN9BiFdg47Z-174" value="" style="verticalLabelPosition=bottom;verticalAlign=top;html=1;shape=mxgraph.basic.rect;fillColor2=none;strokeWidth=0.5;size=20;indent=5;fillColor=#B3FF66;strokeColor=#000000;container=0;" parent="V1e9pzaGmxN9BiFdg47Z-227" vertex="1">
          <mxGeometry x="262.48535225048926" y="65.26315789473676" width="5.504882583170254" height="8.289473684210526" as="geometry" />
        </mxCell>
        <mxCell id="V1e9pzaGmxN9BiFdg47Z-175" value="" style="verticalLabelPosition=bottom;verticalAlign=top;html=1;shape=mxgraph.basic.rect;fillColor2=none;strokeWidth=0.5;size=20;indent=5;fillColor=#B3FF66;strokeColor=#000000;container=0;" parent="V1e9pzaGmxN9BiFdg47Z-227" vertex="1">
          <mxGeometry x="167.06738747553817" y="76.31578947368416" width="5.504882583170254" height="8.289473684210526" as="geometry" />
        </mxCell>
        <mxCell id="V1e9pzaGmxN9BiFdg47Z-176" value="" style="verticalLabelPosition=bottom;verticalAlign=top;html=1;shape=mxgraph.basic.rect;fillColor2=none;strokeWidth=0.5;size=20;indent=5;fillColor=#B3FF66;strokeColor=#000000;container=0;" parent="V1e9pzaGmxN9BiFdg47Z-227" vertex="1">
          <mxGeometry x="174.4072309197652" y="76.31578947368416" width="5.504882583170254" height="8.289473684210526" as="geometry" />
        </mxCell>
        <mxCell id="V1e9pzaGmxN9BiFdg47Z-177" value="" style="verticalLabelPosition=bottom;verticalAlign=top;html=1;shape=mxgraph.basic.rect;fillColor2=none;strokeWidth=0.5;size=20;indent=5;fillColor=#B3FF66;strokeColor=#000000;container=0;" parent="V1e9pzaGmxN9BiFdg47Z-227" vertex="1">
          <mxGeometry x="181.74707436399217" y="76.31578947368416" width="5.504882583170254" height="8.289473684210526" as="geometry" />
        </mxCell>
        <mxCell id="V1e9pzaGmxN9BiFdg47Z-178" value="" style="verticalLabelPosition=bottom;verticalAlign=top;html=1;shape=mxgraph.basic.rect;fillColor2=none;strokeWidth=0.5;size=20;indent=5;fillColor=#B3FF66;strokeColor=#000000;container=0;" parent="V1e9pzaGmxN9BiFdg47Z-227" vertex="1">
          <mxGeometry x="189.0869178082192" y="76.31578947368416" width="5.504882583170254" height="8.289473684210526" as="geometry" />
        </mxCell>
        <mxCell id="V1e9pzaGmxN9BiFdg47Z-179" value="" style="verticalLabelPosition=bottom;verticalAlign=top;html=1;shape=mxgraph.basic.rect;fillColor2=none;strokeWidth=0.5;size=20;indent=5;fillColor=#B3FF66;strokeColor=#000000;container=0;" parent="V1e9pzaGmxN9BiFdg47Z-227" vertex="1">
          <mxGeometry x="196.42676125244623" y="76.31578947368416" width="5.504882583170254" height="8.289473684210526" as="geometry" />
        </mxCell>
        <mxCell id="V1e9pzaGmxN9BiFdg47Z-180" value="" style="verticalLabelPosition=bottom;verticalAlign=top;html=1;shape=mxgraph.basic.rect;fillColor2=none;strokeWidth=0.5;size=20;indent=5;fillColor=#B3FF66;strokeColor=#000000;container=0;" parent="V1e9pzaGmxN9BiFdg47Z-227" vertex="1">
          <mxGeometry x="203.7666046966732" y="76.31578947368416" width="5.504882583170254" height="8.289473684210526" as="geometry" />
        </mxCell>
        <mxCell id="V1e9pzaGmxN9BiFdg47Z-181" value="" style="verticalLabelPosition=bottom;verticalAlign=top;html=1;shape=mxgraph.basic.rect;fillColor2=none;strokeWidth=0.5;size=20;indent=5;fillColor=#B3FF66;strokeColor=#000000;container=0;" parent="V1e9pzaGmxN9BiFdg47Z-227" vertex="1">
          <mxGeometry x="211.10644814090028" y="76.31578947368416" width="5.504882583170254" height="8.289473684210526" as="geometry" />
        </mxCell>
        <mxCell id="V1e9pzaGmxN9BiFdg47Z-182" value="" style="verticalLabelPosition=bottom;verticalAlign=top;html=1;shape=mxgraph.basic.rect;fillColor2=none;strokeWidth=0.5;size=20;indent=5;fillColor=#B3FF66;strokeColor=#000000;container=0;" parent="V1e9pzaGmxN9BiFdg47Z-227" vertex="1">
          <mxGeometry x="218.4462915851272" y="76.31578947368416" width="5.504882583170254" height="8.289473684210526" as="geometry" />
        </mxCell>
        <mxCell id="V1e9pzaGmxN9BiFdg47Z-183" value="" style="verticalLabelPosition=bottom;verticalAlign=top;html=1;shape=mxgraph.basic.rect;fillColor2=none;strokeWidth=0.5;size=20;indent=5;fillColor=#B3FF66;strokeColor=#000000;container=0;" parent="V1e9pzaGmxN9BiFdg47Z-227" vertex="1">
          <mxGeometry x="225.7861350293541" y="76.31578947368416" width="5.504882583170254" height="8.289473684210526" as="geometry" />
        </mxCell>
        <mxCell id="V1e9pzaGmxN9BiFdg47Z-184" value="" style="verticalLabelPosition=bottom;verticalAlign=top;html=1;shape=mxgraph.basic.rect;fillColor2=none;strokeWidth=0.5;size=20;indent=5;fillColor=#B3FF66;strokeColor=#000000;container=0;" parent="V1e9pzaGmxN9BiFdg47Z-227" vertex="1">
          <mxGeometry x="233.12597847358126" y="76.31578947368416" width="5.504882583170254" height="8.289473684210526" as="geometry" />
        </mxCell>
        <mxCell id="V1e9pzaGmxN9BiFdg47Z-185" value="" style="verticalLabelPosition=bottom;verticalAlign=top;html=1;shape=mxgraph.basic.rect;fillColor2=none;strokeWidth=0.5;size=20;indent=5;fillColor=#B3FF66;strokeColor=#000000;container=0;" parent="V1e9pzaGmxN9BiFdg47Z-227" vertex="1">
          <mxGeometry x="240.46582191780817" y="76.31578947368416" width="5.504882583170254" height="8.289473684210526" as="geometry" />
        </mxCell>
        <mxCell id="V1e9pzaGmxN9BiFdg47Z-186" value="" style="verticalLabelPosition=bottom;verticalAlign=top;html=1;shape=mxgraph.basic.rect;fillColor2=none;strokeWidth=0.5;size=20;indent=5;fillColor=#B3FF66;strokeColor=#000000;container=0;" parent="V1e9pzaGmxN9BiFdg47Z-227" vertex="1">
          <mxGeometry x="247.80566536203526" y="76.31578947368416" width="5.504882583170254" height="8.289473684210526" as="geometry" />
        </mxCell>
        <mxCell id="V1e9pzaGmxN9BiFdg47Z-187" value="" style="verticalLabelPosition=bottom;verticalAlign=top;html=1;shape=mxgraph.basic.rect;fillColor2=none;strokeWidth=0.5;size=20;indent=5;fillColor=#B3FF66;strokeColor=#000000;container=0;" parent="V1e9pzaGmxN9BiFdg47Z-227" vertex="1">
          <mxGeometry x="255.14550880626223" y="76.31578947368416" width="5.504882583170254" height="8.289473684210526" as="geometry" />
        </mxCell>
        <mxCell id="V1e9pzaGmxN9BiFdg47Z-188" value="" style="verticalLabelPosition=bottom;verticalAlign=top;html=1;shape=mxgraph.basic.rect;fillColor2=none;strokeWidth=0.5;size=20;indent=5;fillColor=#B3FF66;strokeColor=#000000;container=0;" parent="V1e9pzaGmxN9BiFdg47Z-227" vertex="1">
          <mxGeometry x="262.48535225048926" y="76.31578947368416" width="5.504882583170254" height="8.289473684210526" as="geometry" />
        </mxCell>
        <mxCell id="V1e9pzaGmxN9BiFdg47Z-189" value="" style="verticalLabelPosition=bottom;verticalAlign=top;html=1;shape=mxgraph.basic.rect;fillColor2=none;strokeWidth=0.5;size=20;indent=5;fillColor=#B3FF66;strokeColor=#000000;container=0;" parent="V1e9pzaGmxN9BiFdg47Z-227" vertex="1">
          <mxGeometry x="167.06738747553817" y="87.36842105263156" width="5.504882583170254" height="8.289473684210526" as="geometry" />
        </mxCell>
        <mxCell id="V1e9pzaGmxN9BiFdg47Z-190" value="" style="verticalLabelPosition=bottom;verticalAlign=top;html=1;shape=mxgraph.basic.rect;fillColor2=none;strokeWidth=0.5;size=20;indent=5;fillColor=#B3FF66;strokeColor=#000000;container=0;" parent="V1e9pzaGmxN9BiFdg47Z-227" vertex="1">
          <mxGeometry x="174.4072309197652" y="87.36842105263156" width="5.504882583170254" height="8.289473684210526" as="geometry" />
        </mxCell>
        <mxCell id="V1e9pzaGmxN9BiFdg47Z-191" value="" style="verticalLabelPosition=bottom;verticalAlign=top;html=1;shape=mxgraph.basic.rect;fillColor2=none;strokeWidth=0.5;size=20;indent=5;fillColor=#B3FF66;strokeColor=#000000;container=0;" parent="V1e9pzaGmxN9BiFdg47Z-227" vertex="1">
          <mxGeometry x="181.74707436399217" y="87.36842105263156" width="5.504882583170254" height="8.289473684210526" as="geometry" />
        </mxCell>
        <mxCell id="V1e9pzaGmxN9BiFdg47Z-192" value="" style="verticalLabelPosition=bottom;verticalAlign=top;html=1;shape=mxgraph.basic.rect;fillColor2=none;strokeWidth=0.5;size=20;indent=5;fillColor=#B3FF66;strokeColor=#000000;container=0;" parent="V1e9pzaGmxN9BiFdg47Z-227" vertex="1">
          <mxGeometry x="189.0869178082192" y="87.36842105263156" width="5.504882583170254" height="8.289473684210526" as="geometry" />
        </mxCell>
        <mxCell id="V1e9pzaGmxN9BiFdg47Z-193" value="" style="verticalLabelPosition=bottom;verticalAlign=top;html=1;shape=mxgraph.basic.rect;fillColor2=none;strokeWidth=0.5;size=20;indent=5;fillColor=#B3FF66;strokeColor=#000000;container=0;" parent="V1e9pzaGmxN9BiFdg47Z-227" vertex="1">
          <mxGeometry x="196.42676125244623" y="87.36842105263156" width="5.504882583170254" height="8.289473684210526" as="geometry" />
        </mxCell>
        <mxCell id="V1e9pzaGmxN9BiFdg47Z-194" value="" style="verticalLabelPosition=bottom;verticalAlign=top;html=1;shape=mxgraph.basic.rect;fillColor2=none;strokeWidth=0.5;size=20;indent=5;fillColor=#B3FF66;strokeColor=#000000;container=0;" parent="V1e9pzaGmxN9BiFdg47Z-227" vertex="1">
          <mxGeometry x="203.7666046966732" y="87.36842105263156" width="5.504882583170254" height="8.289473684210526" as="geometry" />
        </mxCell>
        <mxCell id="V1e9pzaGmxN9BiFdg47Z-195" value="" style="verticalLabelPosition=bottom;verticalAlign=top;html=1;shape=mxgraph.basic.rect;fillColor2=none;strokeWidth=0.5;size=20;indent=5;fillColor=#B3FF66;strokeColor=#000000;container=0;" parent="V1e9pzaGmxN9BiFdg47Z-227" vertex="1">
          <mxGeometry x="211.10644814090028" y="87.36842105263156" width="5.504882583170254" height="8.289473684210526" as="geometry" />
        </mxCell>
        <mxCell id="V1e9pzaGmxN9BiFdg47Z-196" value="" style="verticalLabelPosition=bottom;verticalAlign=top;html=1;shape=mxgraph.basic.rect;fillColor2=none;strokeWidth=0.5;size=20;indent=5;fillColor=#B3FF66;strokeColor=#000000;container=0;" parent="V1e9pzaGmxN9BiFdg47Z-227" vertex="1">
          <mxGeometry x="218.4462915851272" y="87.36842105263156" width="5.504882583170254" height="8.289473684210526" as="geometry" />
        </mxCell>
        <mxCell id="V1e9pzaGmxN9BiFdg47Z-197" value="" style="verticalLabelPosition=bottom;verticalAlign=top;html=1;shape=mxgraph.basic.rect;fillColor2=none;strokeWidth=0.5;size=20;indent=5;fillColor=#B3FF66;strokeColor=#000000;container=0;" parent="V1e9pzaGmxN9BiFdg47Z-227" vertex="1">
          <mxGeometry x="225.7861350293541" y="87.36842105263156" width="5.504882583170254" height="8.289473684210526" as="geometry" />
        </mxCell>
        <mxCell id="V1e9pzaGmxN9BiFdg47Z-198" value="" style="verticalLabelPosition=bottom;verticalAlign=top;html=1;shape=mxgraph.basic.rect;fillColor2=none;strokeWidth=0.5;size=20;indent=5;fillColor=#B3FF66;strokeColor=#000000;container=0;" parent="V1e9pzaGmxN9BiFdg47Z-227" vertex="1">
          <mxGeometry x="233.12597847358126" y="87.36842105263156" width="5.504882583170254" height="8.289473684210526" as="geometry" />
        </mxCell>
        <mxCell id="V1e9pzaGmxN9BiFdg47Z-199" value="" style="verticalLabelPosition=bottom;verticalAlign=top;html=1;shape=mxgraph.basic.rect;fillColor2=none;strokeWidth=0.5;size=20;indent=5;fillColor=#B3FF66;strokeColor=#000000;container=0;" parent="V1e9pzaGmxN9BiFdg47Z-227" vertex="1">
          <mxGeometry x="240.46582191780817" y="87.36842105263156" width="5.504882583170254" height="8.289473684210526" as="geometry" />
        </mxCell>
        <mxCell id="V1e9pzaGmxN9BiFdg47Z-200" value="" style="verticalLabelPosition=bottom;verticalAlign=top;html=1;shape=mxgraph.basic.rect;fillColor2=none;strokeWidth=0.5;size=20;indent=5;fillColor=#B3FF66;strokeColor=#000000;container=0;" parent="V1e9pzaGmxN9BiFdg47Z-227" vertex="1">
          <mxGeometry x="247.80566536203526" y="87.36842105263156" width="5.504882583170254" height="8.289473684210526" as="geometry" />
        </mxCell>
        <mxCell id="V1e9pzaGmxN9BiFdg47Z-201" value="" style="verticalLabelPosition=bottom;verticalAlign=top;html=1;shape=mxgraph.basic.rect;fillColor2=none;strokeWidth=0.5;size=20;indent=5;fillColor=#B3FF66;strokeColor=#000000;container=0;" parent="V1e9pzaGmxN9BiFdg47Z-227" vertex="1">
          <mxGeometry x="255.14550880626223" y="87.36842105263156" width="5.504882583170254" height="8.289473684210526" as="geometry" />
        </mxCell>
        <mxCell id="V1e9pzaGmxN9BiFdg47Z-202" value="" style="verticalLabelPosition=bottom;verticalAlign=top;html=1;shape=mxgraph.basic.rect;fillColor2=none;strokeWidth=0.5;size=20;indent=5;fillColor=#B3FF66;strokeColor=#000000;container=0;" parent="V1e9pzaGmxN9BiFdg47Z-227" vertex="1">
          <mxGeometry x="262.48535225048926" y="87.36842105263156" width="5.504882583170254" height="8.289473684210526" as="geometry" />
        </mxCell>
        <mxCell id="V1e9pzaGmxN9BiFdg47Z-203" value="" style="verticalLabelPosition=bottom;verticalAlign=top;html=1;shape=mxgraph.basic.rect;fillColor2=none;strokeWidth=0.5;size=20;indent=5;fillColor=#B3FF66;strokeColor=#000000;container=0;" parent="V1e9pzaGmxN9BiFdg47Z-227" vertex="1">
          <mxGeometry x="167.06738747553817" y="98.42105263157885" width="5.504882583170254" height="8.289473684210526" as="geometry" />
        </mxCell>
        <mxCell id="V1e9pzaGmxN9BiFdg47Z-204" value="" style="verticalLabelPosition=bottom;verticalAlign=top;html=1;shape=mxgraph.basic.rect;fillColor2=none;strokeWidth=0.5;size=20;indent=5;fillColor=#B3FF66;strokeColor=#000000;container=0;" parent="V1e9pzaGmxN9BiFdg47Z-227" vertex="1">
          <mxGeometry x="174.4072309197652" y="98.42105263157885" width="5.504882583170254" height="8.289473684210526" as="geometry" />
        </mxCell>
        <mxCell id="V1e9pzaGmxN9BiFdg47Z-205" value="" style="verticalLabelPosition=bottom;verticalAlign=top;html=1;shape=mxgraph.basic.rect;fillColor2=none;strokeWidth=0.5;size=20;indent=5;fillColor=#B3FF66;strokeColor=#000000;container=0;" parent="V1e9pzaGmxN9BiFdg47Z-227" vertex="1">
          <mxGeometry x="181.74707436399217" y="98.42105263157885" width="5.504882583170254" height="8.289473684210526" as="geometry" />
        </mxCell>
        <mxCell id="V1e9pzaGmxN9BiFdg47Z-206" value="" style="verticalLabelPosition=bottom;verticalAlign=top;html=1;shape=mxgraph.basic.rect;fillColor2=none;strokeWidth=0.5;size=20;indent=5;fillColor=#B3FF66;strokeColor=#000000;container=0;" parent="V1e9pzaGmxN9BiFdg47Z-227" vertex="1">
          <mxGeometry x="189.0869178082192" y="98.42105263157885" width="5.504882583170254" height="8.289473684210526" as="geometry" />
        </mxCell>
        <mxCell id="V1e9pzaGmxN9BiFdg47Z-207" value="" style="verticalLabelPosition=bottom;verticalAlign=top;html=1;shape=mxgraph.basic.rect;fillColor2=none;strokeWidth=0.5;size=20;indent=5;fillColor=#B3FF66;strokeColor=#000000;container=0;" parent="V1e9pzaGmxN9BiFdg47Z-227" vertex="1">
          <mxGeometry x="196.42676125244623" y="98.42105263157885" width="5.504882583170254" height="8.289473684210526" as="geometry" />
        </mxCell>
        <mxCell id="V1e9pzaGmxN9BiFdg47Z-208" value="" style="verticalLabelPosition=bottom;verticalAlign=top;html=1;shape=mxgraph.basic.rect;fillColor2=none;strokeWidth=0.5;size=20;indent=5;fillColor=#B3FF66;strokeColor=#000000;container=0;" parent="V1e9pzaGmxN9BiFdg47Z-227" vertex="1">
          <mxGeometry x="203.7666046966732" y="98.42105263157885" width="5.504882583170254" height="8.289473684210526" as="geometry" />
        </mxCell>
        <mxCell id="V1e9pzaGmxN9BiFdg47Z-209" value="" style="verticalLabelPosition=bottom;verticalAlign=top;html=1;shape=mxgraph.basic.rect;fillColor2=none;strokeWidth=0.5;size=20;indent=5;fillColor=#B3FF66;strokeColor=#000000;container=0;" parent="V1e9pzaGmxN9BiFdg47Z-227" vertex="1">
          <mxGeometry x="211.10644814090028" y="98.42105263157885" width="5.504882583170254" height="8.289473684210526" as="geometry" />
        </mxCell>
        <mxCell id="V1e9pzaGmxN9BiFdg47Z-210" value="" style="verticalLabelPosition=bottom;verticalAlign=top;html=1;shape=mxgraph.basic.rect;fillColor2=none;strokeWidth=0.5;size=20;indent=5;fillColor=#B3FF66;strokeColor=#000000;container=0;" parent="V1e9pzaGmxN9BiFdg47Z-227" vertex="1">
          <mxGeometry x="218.4462915851272" y="98.42105263157885" width="5.504882583170254" height="8.289473684210526" as="geometry" />
        </mxCell>
        <mxCell id="V1e9pzaGmxN9BiFdg47Z-211" value="" style="verticalLabelPosition=bottom;verticalAlign=top;html=1;shape=mxgraph.basic.rect;fillColor2=none;strokeWidth=0.5;size=20;indent=5;fillColor=#B3FF66;strokeColor=#000000;container=0;" parent="V1e9pzaGmxN9BiFdg47Z-227" vertex="1">
          <mxGeometry x="225.7861350293541" y="98.42105263157885" width="5.504882583170254" height="8.289473684210526" as="geometry" />
        </mxCell>
        <mxCell id="V1e9pzaGmxN9BiFdg47Z-212" value="" style="verticalLabelPosition=bottom;verticalAlign=top;html=1;shape=mxgraph.basic.rect;fillColor2=none;strokeWidth=0.5;size=20;indent=5;fillColor=#B3FF66;strokeColor=#000000;container=0;" parent="V1e9pzaGmxN9BiFdg47Z-227" vertex="1">
          <mxGeometry x="233.12597847358126" y="98.42105263157885" width="5.504882583170254" height="8.289473684210526" as="geometry" />
        </mxCell>
        <mxCell id="V1e9pzaGmxN9BiFdg47Z-213" value="" style="verticalLabelPosition=bottom;verticalAlign=top;html=1;shape=mxgraph.basic.rect;fillColor2=none;strokeWidth=0.5;size=20;indent=5;fillColor=#B3FF66;strokeColor=#000000;container=0;" parent="V1e9pzaGmxN9BiFdg47Z-227" vertex="1">
          <mxGeometry x="240.46582191780817" y="98.42105263157885" width="5.504882583170254" height="8.289473684210526" as="geometry" />
        </mxCell>
        <mxCell id="V1e9pzaGmxN9BiFdg47Z-214" value="" style="verticalLabelPosition=bottom;verticalAlign=top;html=1;shape=mxgraph.basic.rect;fillColor2=none;strokeWidth=0.5;size=20;indent=5;fillColor=#B3FF66;strokeColor=#000000;container=0;" parent="V1e9pzaGmxN9BiFdg47Z-227" vertex="1">
          <mxGeometry x="247.80566536203526" y="98.42105263157885" width="5.504882583170254" height="8.289473684210526" as="geometry" />
        </mxCell>
        <mxCell id="V1e9pzaGmxN9BiFdg47Z-215" value="" style="verticalLabelPosition=bottom;verticalAlign=top;html=1;shape=mxgraph.basic.rect;fillColor2=none;strokeWidth=0.5;size=20;indent=5;fillColor=#B3FF66;strokeColor=#000000;container=0;" parent="V1e9pzaGmxN9BiFdg47Z-227" vertex="1">
          <mxGeometry x="255.14550880626223" y="98.42105263157885" width="5.504882583170254" height="8.289473684210526" as="geometry" />
        </mxCell>
        <mxCell id="V1e9pzaGmxN9BiFdg47Z-216" value="" style="verticalLabelPosition=bottom;verticalAlign=top;html=1;shape=mxgraph.basic.rect;fillColor2=none;strokeWidth=0.5;size=20;indent=5;fillColor=#B3FF66;strokeColor=#000000;container=0;" parent="V1e9pzaGmxN9BiFdg47Z-227" vertex="1">
          <mxGeometry x="262.48535225048926" y="98.42105263157885" width="5.504882583170254" height="8.289473684210526" as="geometry" />
        </mxCell>
        <mxCell id="V1e9pzaGmxN9BiFdg47Z-3" value="" style="ellipse;whiteSpace=wrap;html=1;aspect=fixed;fillColor=#000000;strokeWidth=0.5;container=0;" parent="V1e9pzaGmxN9BiFdg47Z-227" vertex="1">
          <mxGeometry x="141.3779354207437" y="79.63157894736844" width="0.9674190474821279" height="0.9674190474821279" as="geometry" />
        </mxCell>
        <mxCell id="V1e9pzaGmxN9BiFdg47Z-4" value="" style="ellipse;whiteSpace=wrap;html=1;aspect=fixed;fillColor=#000000;strokeWidth=0.5;container=0;" parent="V1e9pzaGmxN9BiFdg47Z-227" vertex="1">
          <mxGeometry x="145.0478571428572" y="79.63157894736844" width="0.9674190474821279" height="0.9674190474821279" as="geometry" />
        </mxCell>
        <mxCell id="V1e9pzaGmxN9BiFdg47Z-5" value="" style="ellipse;whiteSpace=wrap;html=1;aspect=fixed;fillColor=#000000;strokeWidth=0.5;container=0;" parent="V1e9pzaGmxN9BiFdg47Z-227" vertex="1">
          <mxGeometry x="148.71777886497074" y="79.63157894736844" width="0.9674190474821279" height="0.9674190474821279" as="geometry" />
        </mxCell>
        <mxCell id="V1e9pzaGmxN9BiFdg47Z-223" value="" style="shape=flexArrow;endArrow=classic;html=1;rounded=0;endWidth=5.5;endSize=2.415;width=6;fillColor=#990000;labelPosition=center;verticalLabelPosition=middle;align=center;verticalAlign=middle;" parent="V1e9pzaGmxN9BiFdg47Z-227" edge="1">
          <mxGeometry width="50" height="50" relative="1" as="geometry">
            <mxPoint x="306" y="177.86" as="sourcePoint" />
            <mxPoint x="285" y="177.91999999999996" as="targetPoint" />
          </mxGeometry>
        </mxCell>
        <UserObject label="S" placeholders="1" name="Variable" id="HeRfeOfUuEtBWh0y5kbV-23">
          <mxCell style="text;html=1;strokeColor=none;fillColor=none;align=center;verticalAlign=middle;whiteSpace=wrap;overflow=hidden;rotation=0;fontSize=10;" parent="1" vertex="1">
            <mxGeometry x="-202.5" y="540.97" width="19" height="14.25" as="geometry" />
          </mxCell>
        </UserObject>
        <mxCell id="HeRfeOfUuEtBWh0y5kbV-42" value="" style="group" parent="1" vertex="1" connectable="0">
          <mxGeometry x="-94" y="632.78" width="204.25" height="87.16000000000008" as="geometry" />
        </mxCell>
        <UserObject label="$$k$$" placeholders="1" name="Variable" id="JFvsJJ7zDFb6BvxLpj8v-223">
          <mxCell style="text;html=1;strokeColor=none;fillColor=none;align=center;verticalAlign=middle;whiteSpace=wrap;overflow=hidden;rotation=0;" parent="HeRfeOfUuEtBWh0y5kbV-42" vertex="1">
            <mxGeometry x="193.75" y="37.16000000000008" width="10.5" height="50" as="geometry" />
          </mxCell>
        </UserObject>
        <mxCell id="JFvsJJ7zDFb6BvxLpj8v-225" value="" style="endArrow=classic;startArrow=classic;html=1;rounded=0;" parent="HeRfeOfUuEtBWh0y5kbV-42" edge="1">
          <mxGeometry width="50" height="50" relative="1" as="geometry">
            <mxPoint x="188.75" y="82.47000000000003" as="sourcePoint" />
            <mxPoint x="188.75" y="42.47000000000003" as="targetPoint" />
          </mxGeometry>
        </mxCell>
        <mxCell id="JFvsJJ7zDFb6BvxLpj8v-226" value="" style="endArrow=classic;startArrow=none;html=1;rounded=0;startFill=0;" parent="HeRfeOfUuEtBWh0y5kbV-42" edge="1">
          <mxGeometry width="50" height="50" relative="1" as="geometry">
            <mxPoint x="98.75" y="32.47000000000003" as="sourcePoint" />
            <mxPoint x="139.75" y="32.47000000000003" as="targetPoint" />
          </mxGeometry>
        </mxCell>
        <UserObject label="$$\text{offset}~k$$" placeholders="1" name="Variable" id="JFvsJJ7zDFb6BvxLpj8v-227">
          <mxCell style="text;html=1;strokeColor=none;fillColor=none;align=center;verticalAlign=middle;whiteSpace=wrap;overflow=hidden;rotation=0;" parent="HeRfeOfUuEtBWh0y5kbV-42" vertex="1">
            <mxGeometry x="93" width="53.75" height="28.47" as="geometry" />
          </mxCell>
        </UserObject>
        <UserObject label="$$\text{Partition}~2$$" placeholders="1" name="Variable" id="HeRfeOfUuEtBWh0y5kbV-40">
          <mxCell style="text;html=1;strokeColor=none;fillColor=none;align=center;verticalAlign=middle;whiteSpace=wrap;overflow=hidden;rotation=0;fontSize=10;" parent="HeRfeOfUuEtBWh0y5kbV-42" vertex="1">
            <mxGeometry x="2.5" y="16.850000000000023" width="68.5" height="24" as="geometry" />
          </mxCell>
        </UserObject>
        <mxCell id="JJOiUmpwqjzjLiXBdQw1-220" value="" style="group" parent="HeRfeOfUuEtBWh0y5kbV-42" vertex="1" connectable="0">
          <mxGeometry y="45.34000000000003" width="180" height="41.81999999999982" as="geometry" />
        </mxCell>
        <mxCell id="JJOiUmpwqjzjLiXBdQw1-190" value="" style="rounded=0;whiteSpace=wrap;html=1;container=0;fillColor=#d5e8d4;strokeColor=#000000;" parent="JJOiUmpwqjzjLiXBdQw1-220" vertex="1">
          <mxGeometry x="20" y="0.30999999999994543" width="79" height="40" as="geometry" />
        </mxCell>
        <mxCell id="JJOiUmpwqjzjLiXBdQw1-191" value="" style="endArrow=none;html=1;rounded=0;entryX=0.5;entryY=0;entryDx=0;entryDy=0;exitX=0.5;exitY=1;exitDx=0;exitDy=0;fillColor=#d5e8d4;strokeColor=#000000;" parent="JJOiUmpwqjzjLiXBdQw1-220" source="JJOiUmpwqjzjLiXBdQw1-190" target="JJOiUmpwqjzjLiXBdQw1-190" edge="1">
          <mxGeometry width="50" height="50" relative="1" as="geometry">
            <mxPoint x="59" y="30.309999999999945" as="sourcePoint" />
            <mxPoint x="59" y="0.30999999999994543" as="targetPoint" />
          </mxGeometry>
        </mxCell>
        <mxCell id="JJOiUmpwqjzjLiXBdQw1-192" value="" style="endArrow=none;html=1;rounded=0;entryX=0.25;entryY=0;entryDx=0;entryDy=0;exitX=0.25;exitY=1;exitDx=0;exitDy=0;fillColor=#d5e8d4;strokeColor=#000000;" parent="JJOiUmpwqjzjLiXBdQw1-220" source="JJOiUmpwqjzjLiXBdQw1-190" target="JJOiUmpwqjzjLiXBdQw1-190" edge="1">
          <mxGeometry width="50" height="50" relative="1" as="geometry">
            <mxPoint x="38.5" y="30.309999999999945" as="sourcePoint" />
            <mxPoint x="38.5" y="0.30999999999994543" as="targetPoint" />
          </mxGeometry>
        </mxCell>
        <mxCell id="JJOiUmpwqjzjLiXBdQw1-193" value="" style="endArrow=none;html=1;rounded=0;exitX=0.75;exitY=1;exitDx=0;exitDy=0;fillColor=#d5e8d4;strokeColor=#000000;" parent="JJOiUmpwqjzjLiXBdQw1-220" source="JJOiUmpwqjzjLiXBdQw1-190" edge="1">
          <mxGeometry width="50" height="50" relative="1" as="geometry">
            <mxPoint x="79" y="30.309999999999945" as="sourcePoint" />
            <mxPoint x="79" y="0.30999999999994543" as="targetPoint" />
          </mxGeometry>
        </mxCell>
        <mxCell id="JJOiUmpwqjzjLiXBdQw1-194" value="0" style="text;html=1;align=center;verticalAlign=middle;whiteSpace=wrap;rounded=0;container=0;" parent="JJOiUmpwqjzjLiXBdQw1-220" vertex="1">
          <mxGeometry x="60" y="0.5599999999998317" width="20" height="20.25" as="geometry" />
        </mxCell>
        <mxCell id="JJOiUmpwqjzjLiXBdQw1-195" value="0" style="text;html=1;align=center;verticalAlign=middle;whiteSpace=wrap;rounded=0;container=0;" parent="JJOiUmpwqjzjLiXBdQw1-220" vertex="1">
          <mxGeometry x="60" y="21.55999999999983" width="20" height="20.25" as="geometry" />
        </mxCell>
        <mxCell id="JJOiUmpwqjzjLiXBdQw1-196" value="0" style="text;html=1;align=center;verticalAlign=middle;whiteSpace=wrap;rounded=0;container=0;" parent="JJOiUmpwqjzjLiXBdQw1-220" vertex="1">
          <mxGeometry x="80" y="0.17999999999994998" width="20" height="20.25" as="geometry" />
        </mxCell>
        <mxCell id="JJOiUmpwqjzjLiXBdQw1-197" value="0" style="text;html=1;align=center;verticalAlign=middle;whiteSpace=wrap;rounded=0;container=0;" parent="JJOiUmpwqjzjLiXBdQw1-220" vertex="1">
          <mxGeometry x="80" y="21.17999999999995" width="20" height="20.25" as="geometry" />
        </mxCell>
        <mxCell id="JJOiUmpwqjzjLiXBdQw1-198" value="0" style="text;html=1;align=center;verticalAlign=middle;whiteSpace=wrap;rounded=0;container=0;" parent="JJOiUmpwqjzjLiXBdQw1-220" vertex="1">
          <mxGeometry x="40" y="0.17999999999994998" width="20" height="20.25" as="geometry" />
        </mxCell>
        <mxCell id="JJOiUmpwqjzjLiXBdQw1-199" value="0" style="text;html=1;align=center;verticalAlign=middle;whiteSpace=wrap;rounded=0;container=0;" parent="JJOiUmpwqjzjLiXBdQw1-220" vertex="1">
          <mxGeometry x="40" y="21.17999999999995" width="20" height="20.25" as="geometry" />
        </mxCell>
        <mxCell id="JJOiUmpwqjzjLiXBdQw1-200" value="" style="rounded=0;whiteSpace=wrap;html=1;container=0;fillColor=#d5e8d4;strokeColor=#000000;" parent="JJOiUmpwqjzjLiXBdQw1-220" vertex="1">
          <mxGeometry x="100" y="0.30999999999994543" width="79" height="40" as="geometry" />
        </mxCell>
        <mxCell id="JJOiUmpwqjzjLiXBdQw1-201" value="" style="endArrow=none;html=1;rounded=0;entryX=0.5;entryY=0;entryDx=0;entryDy=0;exitX=0.5;exitY=1;exitDx=0;exitDy=0;fillColor=#d5e8d4;strokeColor=#000000;" parent="JJOiUmpwqjzjLiXBdQw1-220" source="JJOiUmpwqjzjLiXBdQw1-200" target="JJOiUmpwqjzjLiXBdQw1-200" edge="1">
          <mxGeometry width="50" height="50" relative="1" as="geometry">
            <mxPoint x="139" y="30.309999999999945" as="sourcePoint" />
            <mxPoint x="139" y="0.30999999999994543" as="targetPoint" />
          </mxGeometry>
        </mxCell>
        <mxCell id="JJOiUmpwqjzjLiXBdQw1-202" value="" style="endArrow=none;html=1;rounded=0;entryX=0.25;entryY=0;entryDx=0;entryDy=0;exitX=0.25;exitY=1;exitDx=0;exitDy=0;fillColor=#d5e8d4;strokeColor=#000000;" parent="JJOiUmpwqjzjLiXBdQw1-220" source="JJOiUmpwqjzjLiXBdQw1-200" target="JJOiUmpwqjzjLiXBdQw1-200" edge="1">
          <mxGeometry width="50" height="50" relative="1" as="geometry">
            <mxPoint x="118.5" y="30.309999999999945" as="sourcePoint" />
            <mxPoint x="118.5" y="0.30999999999994543" as="targetPoint" />
          </mxGeometry>
        </mxCell>
        <mxCell id="JJOiUmpwqjzjLiXBdQw1-203" value="" style="endArrow=none;html=1;rounded=0;exitX=0.75;exitY=1;exitDx=0;exitDy=0;fillColor=#d5e8d4;strokeColor=#000000;" parent="JJOiUmpwqjzjLiXBdQw1-220" source="JJOiUmpwqjzjLiXBdQw1-200" edge="1">
          <mxGeometry width="50" height="50" relative="1" as="geometry">
            <mxPoint x="159" y="30.309999999999945" as="sourcePoint" />
            <mxPoint x="159" y="0.30999999999994543" as="targetPoint" />
          </mxGeometry>
        </mxCell>
        <mxCell id="JJOiUmpwqjzjLiXBdQw1-204" value="" style="endArrow=none;html=1;rounded=0;entryX=0;entryY=0.5;entryDx=0;entryDy=0;exitX=1;exitY=0.5;exitDx=0;exitDy=0;fillColor=#d5e8d4;strokeColor=#000000;" parent="JJOiUmpwqjzjLiXBdQw1-220" source="JJOiUmpwqjzjLiXBdQw1-200" target="JJOiUmpwqjzjLiXBdQw1-200" edge="1">
          <mxGeometry width="50" height="50" relative="1" as="geometry">
            <mxPoint x="170" y="60.309999999999945" as="sourcePoint" />
            <mxPoint x="170" y="30.309999999999945" as="targetPoint" />
          </mxGeometry>
        </mxCell>
        <mxCell id="JJOiUmpwqjzjLiXBdQw1-205" value="1" style="text;html=1;align=center;verticalAlign=middle;whiteSpace=wrap;rounded=0;container=0;" parent="JJOiUmpwqjzjLiXBdQw1-220" vertex="1">
          <mxGeometry x="140" y="0.5599999999998317" width="20" height="20.25" as="geometry" />
        </mxCell>
        <mxCell id="JJOiUmpwqjzjLiXBdQw1-206" value="0" style="text;html=1;align=center;verticalAlign=middle;whiteSpace=wrap;rounded=0;container=0;" parent="JJOiUmpwqjzjLiXBdQw1-220" vertex="1">
          <mxGeometry x="140" y="21.55999999999983" width="20" height="20.25" as="geometry" />
        </mxCell>
        <mxCell id="JJOiUmpwqjzjLiXBdQw1-207" value="0" style="text;html=1;align=center;verticalAlign=middle;whiteSpace=wrap;rounded=0;container=0;" parent="JJOiUmpwqjzjLiXBdQw1-220" vertex="1">
          <mxGeometry x="160" y="0.17999999999994998" width="20" height="20.25" as="geometry" />
        </mxCell>
        <mxCell id="JJOiUmpwqjzjLiXBdQw1-208" value="1" style="text;html=1;align=center;verticalAlign=middle;whiteSpace=wrap;rounded=0;container=0;" parent="JJOiUmpwqjzjLiXBdQw1-220" vertex="1">
          <mxGeometry x="160" y="21.17999999999995" width="20" height="20.25" as="geometry" />
        </mxCell>
        <mxCell id="JJOiUmpwqjzjLiXBdQw1-209" value="0" style="text;html=1;align=center;verticalAlign=middle;whiteSpace=wrap;rounded=0;container=0;" parent="JJOiUmpwqjzjLiXBdQw1-220" vertex="1">
          <mxGeometry x="120" y="0.17999999999994998" width="20" height="20.25" as="geometry" />
        </mxCell>
        <mxCell id="JJOiUmpwqjzjLiXBdQw1-210" value="0" style="text;html=1;align=center;verticalAlign=middle;whiteSpace=wrap;rounded=0;container=0;" parent="JJOiUmpwqjzjLiXBdQw1-220" vertex="1">
          <mxGeometry x="120" y="21.17999999999995" width="20" height="20.25" as="geometry" />
        </mxCell>
        <mxCell id="JJOiUmpwqjzjLiXBdQw1-211" value="0" style="text;html=1;align=center;verticalAlign=middle;whiteSpace=wrap;rounded=0;container=0;" parent="JJOiUmpwqjzjLiXBdQw1-220" vertex="1">
          <mxGeometry x="100" y="0.17999999999994998" width="20" height="20.25" as="geometry" />
        </mxCell>
        <mxCell id="JJOiUmpwqjzjLiXBdQw1-212" value="0" style="text;html=1;align=center;verticalAlign=middle;whiteSpace=wrap;rounded=0;container=0;" parent="JJOiUmpwqjzjLiXBdQw1-220" vertex="1">
          <mxGeometry x="100" y="21.17999999999995" width="20" height="20.25" as="geometry" />
        </mxCell>
        <mxCell id="JJOiUmpwqjzjLiXBdQw1-213" value="" style="rounded=0;whiteSpace=wrap;html=1;container=0;fillColor=#d5e8d4;strokeColor=#000000;" parent="JJOiUmpwqjzjLiXBdQw1-220" vertex="1">
          <mxGeometry y="0.30999999999994543" width="20" height="40" as="geometry" />
        </mxCell>
        <mxCell id="JJOiUmpwqjzjLiXBdQw1-214" value="" style="endArrow=none;html=1;rounded=0;entryX=0;entryY=0.5;entryDx=0;entryDy=0;exitX=1;exitY=0.5;exitDx=0;exitDy=0;fillColor=#d5e8d4;strokeColor=#000000;" parent="JJOiUmpwqjzjLiXBdQw1-220" source="JJOiUmpwqjzjLiXBdQw1-190" target="JJOiUmpwqjzjLiXBdQw1-213" edge="1">
          <mxGeometry width="50" height="50" relative="1" as="geometry">
            <mxPoint x="90" y="60.309999999999945" as="sourcePoint" />
            <mxPoint x="90" y="30.309999999999945" as="targetPoint" />
          </mxGeometry>
        </mxCell>
        <mxCell id="JJOiUmpwqjzjLiXBdQw1-215" value="0" style="text;html=1;align=center;verticalAlign=middle;whiteSpace=wrap;rounded=0;movable=1;resizable=1;rotatable=1;deletable=1;editable=1;locked=0;connectable=1;container=0;" parent="JJOiUmpwqjzjLiXBdQw1-220" vertex="1">
          <mxGeometry y="0.17999999999994998" width="20" height="20.25" as="geometry" />
        </mxCell>
        <mxCell id="JJOiUmpwqjzjLiXBdQw1-216" value="0" style="text;html=1;align=center;verticalAlign=middle;whiteSpace=wrap;rounded=0;movable=1;resizable=1;rotatable=1;deletable=1;editable=1;locked=0;connectable=1;container=0;" parent="JJOiUmpwqjzjLiXBdQw1-220" vertex="1">
          <mxGeometry y="21.17999999999995" width="20" height="20.25" as="geometry" />
        </mxCell>
        <mxCell id="JJOiUmpwqjzjLiXBdQw1-217" value="0" style="text;html=1;align=center;verticalAlign=middle;whiteSpace=wrap;rounded=0;movable=1;resizable=1;rotatable=1;deletable=1;editable=1;locked=0;connectable=1;container=0;" parent="JJOiUmpwqjzjLiXBdQw1-220" vertex="1">
          <mxGeometry x="20" y="0.5699999999998226" width="20" height="20.25" as="geometry" />
        </mxCell>
        <mxCell id="JJOiUmpwqjzjLiXBdQw1-218" value="0" style="text;html=1;align=center;verticalAlign=middle;whiteSpace=wrap;rounded=0;movable=1;resizable=1;rotatable=1;deletable=1;editable=1;locked=0;connectable=1;container=0;" parent="JJOiUmpwqjzjLiXBdQw1-220" vertex="1">
          <mxGeometry x="20" y="21.569999999999823" width="20" height="20.25" as="geometry" />
        </mxCell>
        <mxCell id="JJOiUmpwqjzjLiXBdQw1-219" value="" style="endArrow=none;html=1;rounded=0;fillColor=#d5e8d4;strokeColor=#000000;" parent="JJOiUmpwqjzjLiXBdQw1-220" edge="1">
          <mxGeometry width="50" height="50" relative="1" as="geometry">
            <mxPoint x="19" y="40" as="sourcePoint" />
            <mxPoint x="19" as="targetPoint" />
          </mxGeometry>
        </mxCell>
        <mxCell id="JJOiUmpwqjzjLiXBdQw1-155" value="" style="group" parent="1" vertex="1" connectable="0">
          <mxGeometry x="-202" y="558" width="180.5" height="42.25" as="geometry" />
        </mxCell>
        <mxCell id="JJOiUmpwqjzjLiXBdQw1-64" value="" style="rounded=0;whiteSpace=wrap;html=1;container=0;fillColor=#dae8fc;strokeColor=#000000;" parent="JJOiUmpwqjzjLiXBdQw1-155" vertex="1">
          <mxGeometry x="20" y="0.37999999999988177" width="79" height="40" as="geometry" />
        </mxCell>
        <mxCell id="JJOiUmpwqjzjLiXBdQw1-65" value="" style="endArrow=none;html=1;rounded=0;entryX=0.5;entryY=0;entryDx=0;entryDy=0;exitX=0.5;exitY=1;exitDx=0;exitDy=0;fillColor=#dae8fc;strokeColor=#000000;" parent="JJOiUmpwqjzjLiXBdQw1-155" source="JJOiUmpwqjzjLiXBdQw1-64" target="JJOiUmpwqjzjLiXBdQw1-64" edge="1">
          <mxGeometry width="50" height="50" relative="1" as="geometry">
            <mxPoint x="59" y="30.37999999999988" as="sourcePoint" />
            <mxPoint x="59" y="0.37999999999988177" as="targetPoint" />
          </mxGeometry>
        </mxCell>
        <mxCell id="JJOiUmpwqjzjLiXBdQw1-66" value="" style="endArrow=none;html=1;rounded=0;entryX=0.25;entryY=0;entryDx=0;entryDy=0;exitX=0.25;exitY=1;exitDx=0;exitDy=0;fillColor=#dae8fc;strokeColor=#000000;" parent="JJOiUmpwqjzjLiXBdQw1-155" source="JJOiUmpwqjzjLiXBdQw1-64" target="JJOiUmpwqjzjLiXBdQw1-64" edge="1">
          <mxGeometry width="50" height="50" relative="1" as="geometry">
            <mxPoint x="38.5" y="30.37999999999988" as="sourcePoint" />
            <mxPoint x="38.5" y="0.37999999999988177" as="targetPoint" />
          </mxGeometry>
        </mxCell>
        <mxCell id="JJOiUmpwqjzjLiXBdQw1-67" value="" style="endArrow=none;html=1;rounded=0;exitX=0.75;exitY=1;exitDx=0;exitDy=0;fillColor=#dae8fc;strokeColor=#000000;" parent="JJOiUmpwqjzjLiXBdQw1-155" source="JJOiUmpwqjzjLiXBdQw1-64" edge="1">
          <mxGeometry width="50" height="50" relative="1" as="geometry">
            <mxPoint x="79" y="30.37999999999988" as="sourcePoint" />
            <mxPoint x="79" y="0.37999999999988177" as="targetPoint" />
          </mxGeometry>
        </mxCell>
        <mxCell id="JJOiUmpwqjzjLiXBdQw1-68" value="0" style="text;html=1;align=center;verticalAlign=middle;whiteSpace=wrap;rounded=0;container=0;" parent="JJOiUmpwqjzjLiXBdQw1-155" vertex="1">
          <mxGeometry x="60.5" y="0.37999999999988177" width="20" height="20.25" as="geometry" />
        </mxCell>
        <mxCell id="JJOiUmpwqjzjLiXBdQw1-69" value="0" style="text;html=1;align=center;verticalAlign=middle;whiteSpace=wrap;rounded=0;container=0;" parent="JJOiUmpwqjzjLiXBdQw1-155" vertex="1">
          <mxGeometry x="60.5" y="21.37999999999988" width="20" height="20.25" as="geometry" />
        </mxCell>
        <mxCell id="JJOiUmpwqjzjLiXBdQw1-70" value="0" style="text;html=1;align=center;verticalAlign=middle;whiteSpace=wrap;rounded=0;container=0;" parent="JJOiUmpwqjzjLiXBdQw1-155" vertex="1">
          <mxGeometry x="80.5" width="20" height="20.25" as="geometry" />
        </mxCell>
        <mxCell id="JJOiUmpwqjzjLiXBdQw1-71" value="0" style="text;html=1;align=center;verticalAlign=middle;whiteSpace=wrap;rounded=0;container=0;" parent="JJOiUmpwqjzjLiXBdQw1-155" vertex="1">
          <mxGeometry x="80.5" y="22" width="20" height="20.25" as="geometry" />
        </mxCell>
        <mxCell id="JJOiUmpwqjzjLiXBdQw1-72" value="0" style="text;html=1;align=center;verticalAlign=middle;whiteSpace=wrap;rounded=0;container=0;" parent="JJOiUmpwqjzjLiXBdQw1-155" vertex="1">
          <mxGeometry x="40.5" width="20" height="20.25" as="geometry" />
        </mxCell>
        <mxCell id="JJOiUmpwqjzjLiXBdQw1-73" value="0" style="text;html=1;align=center;verticalAlign=middle;whiteSpace=wrap;rounded=0;container=0;" parent="JJOiUmpwqjzjLiXBdQw1-155" vertex="1">
          <mxGeometry x="40.5" y="22" width="20" height="20.25" as="geometry" />
        </mxCell>
        <mxCell id="JJOiUmpwqjzjLiXBdQw1-74" value="" style="rounded=0;whiteSpace=wrap;html=1;container=0;fillColor=#dae8fc;strokeColor=#000000;" parent="JJOiUmpwqjzjLiXBdQw1-155" vertex="1">
          <mxGeometry x="100" y="0.37999999999988177" width="79" height="40" as="geometry" />
        </mxCell>
        <mxCell id="JJOiUmpwqjzjLiXBdQw1-75" value="" style="endArrow=none;html=1;rounded=0;entryX=0.5;entryY=0;entryDx=0;entryDy=0;exitX=0.5;exitY=1;exitDx=0;exitDy=0;" parent="JJOiUmpwqjzjLiXBdQw1-155" source="JJOiUmpwqjzjLiXBdQw1-74" target="JJOiUmpwqjzjLiXBdQw1-74" edge="1">
          <mxGeometry width="50" height="50" relative="1" as="geometry">
            <mxPoint x="139" y="30.37999999999988" as="sourcePoint" />
            <mxPoint x="139" y="0.37999999999988177" as="targetPoint" />
          </mxGeometry>
        </mxCell>
        <mxCell id="JJOiUmpwqjzjLiXBdQw1-76" value="" style="endArrow=none;html=1;rounded=0;entryX=0.25;entryY=0;entryDx=0;entryDy=0;exitX=0.25;exitY=1;exitDx=0;exitDy=0;" parent="JJOiUmpwqjzjLiXBdQw1-155" source="JJOiUmpwqjzjLiXBdQw1-74" target="JJOiUmpwqjzjLiXBdQw1-74" edge="1">
          <mxGeometry width="50" height="50" relative="1" as="geometry">
            <mxPoint x="118.5" y="30.37999999999988" as="sourcePoint" />
            <mxPoint x="118.5" y="0.37999999999988177" as="targetPoint" />
          </mxGeometry>
        </mxCell>
        <mxCell id="JJOiUmpwqjzjLiXBdQw1-77" value="" style="endArrow=none;html=1;rounded=0;exitX=0.75;exitY=1;exitDx=0;exitDy=0;" parent="JJOiUmpwqjzjLiXBdQw1-155" source="JJOiUmpwqjzjLiXBdQw1-74" edge="1">
          <mxGeometry width="50" height="50" relative="1" as="geometry">
            <mxPoint x="159" y="30.37999999999988" as="sourcePoint" />
            <mxPoint x="159" y="0.37999999999988177" as="targetPoint" />
          </mxGeometry>
        </mxCell>
        <mxCell id="JJOiUmpwqjzjLiXBdQw1-78" value="" style="endArrow=none;html=1;rounded=0;entryX=0;entryY=0.5;entryDx=0;entryDy=0;exitX=1;exitY=0.5;exitDx=0;exitDy=0;" parent="JJOiUmpwqjzjLiXBdQw1-155" source="JJOiUmpwqjzjLiXBdQw1-74" target="JJOiUmpwqjzjLiXBdQw1-74" edge="1">
          <mxGeometry width="50" height="50" relative="1" as="geometry">
            <mxPoint x="170" y="60.37999999999988" as="sourcePoint" />
            <mxPoint x="170" y="30.37999999999988" as="targetPoint" />
          </mxGeometry>
        </mxCell>
        <mxCell id="JJOiUmpwqjzjLiXBdQw1-79" value="0" style="text;html=1;align=center;verticalAlign=middle;whiteSpace=wrap;rounded=0;container=0;" parent="JJOiUmpwqjzjLiXBdQw1-155" vertex="1">
          <mxGeometry x="140.5" y="0.37999999999988177" width="20" height="20.25" as="geometry" />
        </mxCell>
        <mxCell id="JJOiUmpwqjzjLiXBdQw1-80" value="0" style="text;html=1;align=center;verticalAlign=middle;whiteSpace=wrap;rounded=0;container=0;" parent="JJOiUmpwqjzjLiXBdQw1-155" vertex="1">
          <mxGeometry x="140.5" y="21.37999999999988" width="20" height="20.25" as="geometry" />
        </mxCell>
        <mxCell id="JJOiUmpwqjzjLiXBdQw1-81" value="0" style="text;html=1;align=center;verticalAlign=middle;whiteSpace=wrap;rounded=0;container=0;" parent="JJOiUmpwqjzjLiXBdQw1-155" vertex="1">
          <mxGeometry x="160.5" width="20" height="20.25" as="geometry" />
        </mxCell>
        <mxCell id="JJOiUmpwqjzjLiXBdQw1-82" value="0" style="text;html=1;align=center;verticalAlign=middle;whiteSpace=wrap;rounded=0;container=0;" parent="JJOiUmpwqjzjLiXBdQw1-155" vertex="1">
          <mxGeometry x="160.5" y="21" width="20" height="20.25" as="geometry" />
        </mxCell>
        <mxCell id="JJOiUmpwqjzjLiXBdQw1-83" value="0" style="text;html=1;align=center;verticalAlign=middle;whiteSpace=wrap;rounded=0;container=0;" parent="JJOiUmpwqjzjLiXBdQw1-155" vertex="1">
          <mxGeometry x="120.5" width="20" height="20.25" as="geometry" />
        </mxCell>
        <mxCell id="JJOiUmpwqjzjLiXBdQw1-84" value="1" style="text;html=1;align=center;verticalAlign=middle;whiteSpace=wrap;rounded=0;container=0;" parent="JJOiUmpwqjzjLiXBdQw1-155" vertex="1">
          <mxGeometry x="120.5" y="22" width="20" height="20.25" as="geometry" />
        </mxCell>
        <mxCell id="JJOiUmpwqjzjLiXBdQw1-85" value="1" style="text;html=1;align=center;verticalAlign=middle;whiteSpace=wrap;rounded=0;container=0;" parent="JJOiUmpwqjzjLiXBdQw1-155" vertex="1">
          <mxGeometry x="100.5" y="1" width="20" height="20.25" as="geometry" />
        </mxCell>
        <mxCell id="JJOiUmpwqjzjLiXBdQw1-86" value="0" style="text;html=1;align=center;verticalAlign=middle;whiteSpace=wrap;rounded=0;container=0;" parent="JJOiUmpwqjzjLiXBdQw1-155" vertex="1">
          <mxGeometry x="100.5" y="22" width="20" height="20.25" as="geometry" />
        </mxCell>
        <mxCell id="JJOiUmpwqjzjLiXBdQw1-87" value="" style="rounded=0;whiteSpace=wrap;html=1;container=0;fillColor=#dae8fc;strokeColor=#000000;" parent="JJOiUmpwqjzjLiXBdQw1-155" vertex="1">
          <mxGeometry y="0.37999999999988177" width="20" height="40" as="geometry" />
        </mxCell>
        <mxCell id="JJOiUmpwqjzjLiXBdQw1-88" value="" style="endArrow=none;html=1;rounded=0;entryX=0;entryY=0.5;entryDx=0;entryDy=0;exitX=1;exitY=0.5;exitDx=0;exitDy=0;fillColor=#dae8fc;strokeColor=#000000;" parent="JJOiUmpwqjzjLiXBdQw1-155" source="JJOiUmpwqjzjLiXBdQw1-64" target="JJOiUmpwqjzjLiXBdQw1-87" edge="1">
          <mxGeometry width="50" height="50" relative="1" as="geometry">
            <mxPoint x="90" y="60.37999999999988" as="sourcePoint" />
            <mxPoint x="90" y="30.37999999999988" as="targetPoint" />
          </mxGeometry>
        </mxCell>
        <mxCell id="JJOiUmpwqjzjLiXBdQw1-89" value="0" style="text;html=1;align=center;verticalAlign=middle;whiteSpace=wrap;rounded=0;movable=1;resizable=1;rotatable=1;deletable=1;editable=1;locked=0;connectable=1;container=0;" parent="JJOiUmpwqjzjLiXBdQw1-155" vertex="1">
          <mxGeometry x="0.5" width="20" height="20.25" as="geometry" />
        </mxCell>
        <mxCell id="JJOiUmpwqjzjLiXBdQw1-90" value="0" style="text;html=1;align=center;verticalAlign=middle;whiteSpace=wrap;rounded=0;movable=1;resizable=1;rotatable=1;deletable=1;editable=1;locked=0;connectable=1;container=0;" parent="JJOiUmpwqjzjLiXBdQw1-155" vertex="1">
          <mxGeometry x="0.5" y="22" width="20" height="20.25" as="geometry" />
        </mxCell>
        <mxCell id="JJOiUmpwqjzjLiXBdQw1-91" value="0" style="text;html=1;align=center;verticalAlign=middle;whiteSpace=wrap;rounded=0;movable=1;resizable=1;rotatable=1;deletable=1;editable=1;locked=0;connectable=1;container=0;" parent="JJOiUmpwqjzjLiXBdQw1-155" vertex="1">
          <mxGeometry x="20.5" y="0.38999999999987267" width="20" height="20.25" as="geometry" />
        </mxCell>
        <mxCell id="JJOiUmpwqjzjLiXBdQw1-92" value="0" style="text;html=1;align=center;verticalAlign=middle;whiteSpace=wrap;rounded=0;movable=1;resizable=1;rotatable=1;deletable=1;editable=1;locked=0;connectable=1;container=0;" parent="JJOiUmpwqjzjLiXBdQw1-155" vertex="1">
          <mxGeometry x="20.5" y="21.389999999999873" width="20" height="20.25" as="geometry" />
        </mxCell>
        <mxCell id="JJOiUmpwqjzjLiXBdQw1-93" value="" style="endArrow=none;html=1;rounded=0;fillColor=#dae8fc;strokeColor=#000000;" parent="JJOiUmpwqjzjLiXBdQw1-155" edge="1">
          <mxGeometry width="50" height="50" relative="1" as="geometry">
            <mxPoint x="19" y="40.069999999999936" as="sourcePoint" />
            <mxPoint x="19" y="0.06999999999993634" as="targetPoint" />
          </mxGeometry>
        </mxCell>
        <mxCell id="JJOiUmpwqjzjLiXBdQw1-187" value="" style="group" parent="1" vertex="1" connectable="0">
          <mxGeometry x="-280" y="678" width="180.5" height="42.25" as="geometry" />
        </mxCell>
        <mxCell id="JJOiUmpwqjzjLiXBdQw1-157" value="" style="rounded=0;whiteSpace=wrap;html=1;container=0;fillColor=#dae8fc;strokeColor=#000000;" parent="JJOiUmpwqjzjLiXBdQw1-187" vertex="1">
          <mxGeometry x="20" y="0.37999999999988177" width="79" height="40" as="geometry" />
        </mxCell>
        <mxCell id="JJOiUmpwqjzjLiXBdQw1-158" value="" style="endArrow=none;html=1;rounded=0;entryX=0.5;entryY=0;entryDx=0;entryDy=0;exitX=0.5;exitY=1;exitDx=0;exitDy=0;fillColor=#dae8fc;strokeColor=#000000;" parent="JJOiUmpwqjzjLiXBdQw1-187" source="JJOiUmpwqjzjLiXBdQw1-157" target="JJOiUmpwqjzjLiXBdQw1-157" edge="1">
          <mxGeometry width="50" height="50" relative="1" as="geometry">
            <mxPoint x="59" y="30.37999999999988" as="sourcePoint" />
            <mxPoint x="59" y="0.37999999999988177" as="targetPoint" />
          </mxGeometry>
        </mxCell>
        <mxCell id="JJOiUmpwqjzjLiXBdQw1-159" value="" style="endArrow=none;html=1;rounded=0;entryX=0.25;entryY=0;entryDx=0;entryDy=0;exitX=0.25;exitY=1;exitDx=0;exitDy=0;fillColor=#dae8fc;strokeColor=#000000;" parent="JJOiUmpwqjzjLiXBdQw1-187" source="JJOiUmpwqjzjLiXBdQw1-157" target="JJOiUmpwqjzjLiXBdQw1-157" edge="1">
          <mxGeometry width="50" height="50" relative="1" as="geometry">
            <mxPoint x="38.5" y="30.37999999999988" as="sourcePoint" />
            <mxPoint x="38.5" y="0.37999999999988177" as="targetPoint" />
          </mxGeometry>
        </mxCell>
        <mxCell id="JJOiUmpwqjzjLiXBdQw1-160" value="" style="endArrow=none;html=1;rounded=0;exitX=0.75;exitY=1;exitDx=0;exitDy=0;fillColor=#dae8fc;strokeColor=#000000;" parent="JJOiUmpwqjzjLiXBdQw1-187" source="JJOiUmpwqjzjLiXBdQw1-157" edge="1">
          <mxGeometry width="50" height="50" relative="1" as="geometry">
            <mxPoint x="79" y="30.37999999999988" as="sourcePoint" />
            <mxPoint x="79" y="0.37999999999988177" as="targetPoint" />
          </mxGeometry>
        </mxCell>
        <mxCell id="JJOiUmpwqjzjLiXBdQw1-161" value="0" style="text;html=1;align=center;verticalAlign=middle;whiteSpace=wrap;rounded=0;container=0;" parent="JJOiUmpwqjzjLiXBdQw1-187" vertex="1">
          <mxGeometry x="60.5" y="0.37999999999988177" width="20" height="20.25" as="geometry" />
        </mxCell>
        <mxCell id="JJOiUmpwqjzjLiXBdQw1-162" value="0" style="text;html=1;align=center;verticalAlign=middle;whiteSpace=wrap;rounded=0;container=0;" parent="JJOiUmpwqjzjLiXBdQw1-187" vertex="1">
          <mxGeometry x="60.5" y="21.37999999999988" width="20" height="20.25" as="geometry" />
        </mxCell>
        <mxCell id="JJOiUmpwqjzjLiXBdQw1-163" value="0" style="text;html=1;align=center;verticalAlign=middle;whiteSpace=wrap;rounded=0;container=0;" parent="JJOiUmpwqjzjLiXBdQw1-187" vertex="1">
          <mxGeometry x="80.5" width="20" height="20.25" as="geometry" />
        </mxCell>
        <mxCell id="JJOiUmpwqjzjLiXBdQw1-164" value="0" style="text;html=1;align=center;verticalAlign=middle;whiteSpace=wrap;rounded=0;container=0;" parent="JJOiUmpwqjzjLiXBdQw1-187" vertex="1">
          <mxGeometry x="80.5" y="22" width="20" height="20.25" as="geometry" />
        </mxCell>
        <mxCell id="JJOiUmpwqjzjLiXBdQw1-165" value="0" style="text;html=1;align=center;verticalAlign=middle;whiteSpace=wrap;rounded=0;container=0;" parent="JJOiUmpwqjzjLiXBdQw1-187" vertex="1">
          <mxGeometry x="40.5" width="20" height="20.25" as="geometry" />
        </mxCell>
        <mxCell id="JJOiUmpwqjzjLiXBdQw1-166" value="0" style="text;html=1;align=center;verticalAlign=middle;whiteSpace=wrap;rounded=0;container=0;" parent="JJOiUmpwqjzjLiXBdQw1-187" vertex="1">
          <mxGeometry x="40.5" y="22" width="20" height="20.25" as="geometry" />
        </mxCell>
        <mxCell id="JJOiUmpwqjzjLiXBdQw1-167" value="" style="rounded=0;whiteSpace=wrap;html=1;container=0;fillColor=#dae8fc;strokeColor=#000000;" parent="JJOiUmpwqjzjLiXBdQw1-187" vertex="1">
          <mxGeometry x="100" y="0.37999999999988177" width="79" height="40" as="geometry" />
        </mxCell>
        <mxCell id="JJOiUmpwqjzjLiXBdQw1-168" value="" style="endArrow=none;html=1;rounded=0;entryX=0.5;entryY=0;entryDx=0;entryDy=0;exitX=0.5;exitY=1;exitDx=0;exitDy=0;" parent="JJOiUmpwqjzjLiXBdQw1-187" source="JJOiUmpwqjzjLiXBdQw1-167" target="JJOiUmpwqjzjLiXBdQw1-167" edge="1">
          <mxGeometry width="50" height="50" relative="1" as="geometry">
            <mxPoint x="139" y="30.37999999999988" as="sourcePoint" />
            <mxPoint x="139" y="0.37999999999988177" as="targetPoint" />
          </mxGeometry>
        </mxCell>
        <mxCell id="JJOiUmpwqjzjLiXBdQw1-169" value="" style="endArrow=none;html=1;rounded=0;entryX=0.25;entryY=0;entryDx=0;entryDy=0;exitX=0.25;exitY=1;exitDx=0;exitDy=0;" parent="JJOiUmpwqjzjLiXBdQw1-187" source="JJOiUmpwqjzjLiXBdQw1-167" target="JJOiUmpwqjzjLiXBdQw1-167" edge="1">
          <mxGeometry width="50" height="50" relative="1" as="geometry">
            <mxPoint x="118.5" y="30.37999999999988" as="sourcePoint" />
            <mxPoint x="118.5" y="0.37999999999988177" as="targetPoint" />
          </mxGeometry>
        </mxCell>
        <mxCell id="JJOiUmpwqjzjLiXBdQw1-170" value="" style="endArrow=none;html=1;rounded=0;exitX=0.75;exitY=1;exitDx=0;exitDy=0;" parent="JJOiUmpwqjzjLiXBdQw1-187" source="JJOiUmpwqjzjLiXBdQw1-167" edge="1">
          <mxGeometry width="50" height="50" relative="1" as="geometry">
            <mxPoint x="159" y="30.37999999999988" as="sourcePoint" />
            <mxPoint x="159" y="0.37999999999988177" as="targetPoint" />
          </mxGeometry>
        </mxCell>
        <mxCell id="JJOiUmpwqjzjLiXBdQw1-171" value="" style="endArrow=none;html=1;rounded=0;entryX=0;entryY=0.5;entryDx=0;entryDy=0;exitX=1;exitY=0.5;exitDx=0;exitDy=0;" parent="JJOiUmpwqjzjLiXBdQw1-187" source="JJOiUmpwqjzjLiXBdQw1-167" target="JJOiUmpwqjzjLiXBdQw1-167" edge="1">
          <mxGeometry width="50" height="50" relative="1" as="geometry">
            <mxPoint x="170" y="60.37999999999988" as="sourcePoint" />
            <mxPoint x="170" y="30.37999999999988" as="targetPoint" />
          </mxGeometry>
        </mxCell>
        <mxCell id="JJOiUmpwqjzjLiXBdQw1-172" value="0" style="text;html=1;align=center;verticalAlign=middle;whiteSpace=wrap;rounded=0;container=0;" parent="JJOiUmpwqjzjLiXBdQw1-187" vertex="1">
          <mxGeometry x="140.5" y="0.37999999999988177" width="20" height="20.25" as="geometry" />
        </mxCell>
        <mxCell id="JJOiUmpwqjzjLiXBdQw1-173" value="0" style="text;html=1;align=center;verticalAlign=middle;whiteSpace=wrap;rounded=0;container=0;" parent="JJOiUmpwqjzjLiXBdQw1-187" vertex="1">
          <mxGeometry x="140.5" y="21.37999999999988" width="20" height="20.25" as="geometry" />
        </mxCell>
        <mxCell id="JJOiUmpwqjzjLiXBdQw1-174" value="0" style="text;html=1;align=center;verticalAlign=middle;whiteSpace=wrap;rounded=0;container=0;" parent="JJOiUmpwqjzjLiXBdQw1-187" vertex="1">
          <mxGeometry x="160.5" width="20" height="20.25" as="geometry" />
        </mxCell>
        <mxCell id="JJOiUmpwqjzjLiXBdQw1-175" value="0" style="text;html=1;align=center;verticalAlign=middle;whiteSpace=wrap;rounded=0;container=0;" parent="JJOiUmpwqjzjLiXBdQw1-187" vertex="1">
          <mxGeometry x="160.5" y="21" width="20" height="20.25" as="geometry" />
        </mxCell>
        <mxCell id="JJOiUmpwqjzjLiXBdQw1-176" value="0" style="text;html=1;align=center;verticalAlign=middle;whiteSpace=wrap;rounded=0;container=0;" parent="JJOiUmpwqjzjLiXBdQw1-187" vertex="1">
          <mxGeometry x="120.5" width="20" height="20.25" as="geometry" />
        </mxCell>
        <mxCell id="JJOiUmpwqjzjLiXBdQw1-177" value="1" style="text;html=1;align=center;verticalAlign=middle;whiteSpace=wrap;rounded=0;container=0;" parent="JJOiUmpwqjzjLiXBdQw1-187" vertex="1">
          <mxGeometry x="120.5" y="22" width="20" height="20.25" as="geometry" />
        </mxCell>
        <mxCell id="JJOiUmpwqjzjLiXBdQw1-178" value="1" style="text;html=1;align=center;verticalAlign=middle;whiteSpace=wrap;rounded=0;container=0;" parent="JJOiUmpwqjzjLiXBdQw1-187" vertex="1">
          <mxGeometry x="100.5" y="1" width="20" height="20.25" as="geometry" />
        </mxCell>
        <mxCell id="JJOiUmpwqjzjLiXBdQw1-179" value="0" style="text;html=1;align=center;verticalAlign=middle;whiteSpace=wrap;rounded=0;container=0;" parent="JJOiUmpwqjzjLiXBdQw1-187" vertex="1">
          <mxGeometry x="100.5" y="22" width="20" height="20.25" as="geometry" />
        </mxCell>
        <mxCell id="JJOiUmpwqjzjLiXBdQw1-180" value="" style="rounded=0;whiteSpace=wrap;html=1;container=0;fillColor=#dae8fc;strokeColor=#000000;" parent="JJOiUmpwqjzjLiXBdQw1-187" vertex="1">
          <mxGeometry y="0.37999999999988177" width="20" height="40" as="geometry" />
        </mxCell>
        <mxCell id="JJOiUmpwqjzjLiXBdQw1-181" value="" style="endArrow=none;html=1;rounded=0;entryX=0;entryY=0.5;entryDx=0;entryDy=0;exitX=1;exitY=0.5;exitDx=0;exitDy=0;fillColor=#dae8fc;strokeColor=#000000;" parent="JJOiUmpwqjzjLiXBdQw1-187" source="JJOiUmpwqjzjLiXBdQw1-157" target="JJOiUmpwqjzjLiXBdQw1-180" edge="1">
          <mxGeometry width="50" height="50" relative="1" as="geometry">
            <mxPoint x="90" y="60.37999999999988" as="sourcePoint" />
            <mxPoint x="90" y="30.37999999999988" as="targetPoint" />
          </mxGeometry>
        </mxCell>
        <mxCell id="JJOiUmpwqjzjLiXBdQw1-182" value="0" style="text;html=1;align=center;verticalAlign=middle;whiteSpace=wrap;rounded=0;movable=1;resizable=1;rotatable=1;deletable=1;editable=1;locked=0;connectable=1;container=0;" parent="JJOiUmpwqjzjLiXBdQw1-187" vertex="1">
          <mxGeometry x="0.5" width="20" height="20.25" as="geometry" />
        </mxCell>
        <mxCell id="JJOiUmpwqjzjLiXBdQw1-183" value="0" style="text;html=1;align=center;verticalAlign=middle;whiteSpace=wrap;rounded=0;movable=1;resizable=1;rotatable=1;deletable=1;editable=1;locked=0;connectable=1;container=0;" parent="JJOiUmpwqjzjLiXBdQw1-187" vertex="1">
          <mxGeometry x="0.5" y="22" width="20" height="20.25" as="geometry" />
        </mxCell>
        <mxCell id="JJOiUmpwqjzjLiXBdQw1-184" value="0" style="text;html=1;align=center;verticalAlign=middle;whiteSpace=wrap;rounded=0;movable=1;resizable=1;rotatable=1;deletable=1;editable=1;locked=0;connectable=1;container=0;" parent="JJOiUmpwqjzjLiXBdQw1-187" vertex="1">
          <mxGeometry x="20.5" y="0.38999999999987267" width="20" height="20.25" as="geometry" />
        </mxCell>
        <mxCell id="JJOiUmpwqjzjLiXBdQw1-185" value="0" style="text;html=1;align=center;verticalAlign=middle;whiteSpace=wrap;rounded=0;movable=1;resizable=1;rotatable=1;deletable=1;editable=1;locked=0;connectable=1;container=0;" parent="JJOiUmpwqjzjLiXBdQw1-187" vertex="1">
          <mxGeometry x="20.5" y="21.389999999999873" width="20" height="20.25" as="geometry" />
        </mxCell>
        <mxCell id="JJOiUmpwqjzjLiXBdQw1-186" value="" style="endArrow=none;html=1;rounded=0;fillColor=#dae8fc;strokeColor=#000000;" parent="JJOiUmpwqjzjLiXBdQw1-187" edge="1">
          <mxGeometry width="50" height="50" relative="1" as="geometry">
            <mxPoint x="19" y="40.069999999999936" as="sourcePoint" />
            <mxPoint x="19" y="0.06999999999993634" as="targetPoint" />
          </mxGeometry>
        </mxCell>
        <mxCell id="JJOiUmpwqjzjLiXBdQw1-188" value="" style="group" parent="1" vertex="1" connectable="0">
          <mxGeometry x="-202" y="598.4499999999999" width="180" height="41.81999999999982" as="geometry" />
        </mxCell>
        <mxCell id="JJOiUmpwqjzjLiXBdQw1-94" value="" style="rounded=0;whiteSpace=wrap;html=1;container=0;fillColor=#d5e8d4;strokeColor=#000000;" parent="JJOiUmpwqjzjLiXBdQw1-188" vertex="1">
          <mxGeometry x="20" y="0.30999999999994543" width="79" height="40" as="geometry" />
        </mxCell>
        <mxCell id="JJOiUmpwqjzjLiXBdQw1-95" value="" style="endArrow=none;html=1;rounded=0;entryX=0.5;entryY=0;entryDx=0;entryDy=0;exitX=0.5;exitY=1;exitDx=0;exitDy=0;fillColor=#d5e8d4;strokeColor=#000000;" parent="JJOiUmpwqjzjLiXBdQw1-188" source="JJOiUmpwqjzjLiXBdQw1-94" target="JJOiUmpwqjzjLiXBdQw1-94" edge="1">
          <mxGeometry width="50" height="50" relative="1" as="geometry">
            <mxPoint x="59" y="30.309999999999945" as="sourcePoint" />
            <mxPoint x="59" y="0.30999999999994543" as="targetPoint" />
          </mxGeometry>
        </mxCell>
        <mxCell id="JJOiUmpwqjzjLiXBdQw1-96" value="" style="endArrow=none;html=1;rounded=0;entryX=0.25;entryY=0;entryDx=0;entryDy=0;exitX=0.25;exitY=1;exitDx=0;exitDy=0;fillColor=#d5e8d4;strokeColor=#000000;" parent="JJOiUmpwqjzjLiXBdQw1-188" source="JJOiUmpwqjzjLiXBdQw1-94" target="JJOiUmpwqjzjLiXBdQw1-94" edge="1">
          <mxGeometry width="50" height="50" relative="1" as="geometry">
            <mxPoint x="38.5" y="30.309999999999945" as="sourcePoint" />
            <mxPoint x="38.5" y="0.30999999999994543" as="targetPoint" />
          </mxGeometry>
        </mxCell>
        <mxCell id="JJOiUmpwqjzjLiXBdQw1-97" value="" style="endArrow=none;html=1;rounded=0;exitX=0.75;exitY=1;exitDx=0;exitDy=0;fillColor=#d5e8d4;strokeColor=#000000;" parent="JJOiUmpwqjzjLiXBdQw1-188" source="JJOiUmpwqjzjLiXBdQw1-94" edge="1">
          <mxGeometry width="50" height="50" relative="1" as="geometry">
            <mxPoint x="79" y="30.309999999999945" as="sourcePoint" />
            <mxPoint x="79" y="0.30999999999994543" as="targetPoint" />
          </mxGeometry>
        </mxCell>
        <mxCell id="JJOiUmpwqjzjLiXBdQw1-98" value="0" style="text;html=1;align=center;verticalAlign=middle;whiteSpace=wrap;rounded=0;container=0;" parent="JJOiUmpwqjzjLiXBdQw1-188" vertex="1">
          <mxGeometry x="60" y="0.5599999999998317" width="20" height="20.25" as="geometry" />
        </mxCell>
        <mxCell id="JJOiUmpwqjzjLiXBdQw1-99" value="0" style="text;html=1;align=center;verticalAlign=middle;whiteSpace=wrap;rounded=0;container=0;" parent="JJOiUmpwqjzjLiXBdQw1-188" vertex="1">
          <mxGeometry x="60" y="21.55999999999983" width="20" height="20.25" as="geometry" />
        </mxCell>
        <mxCell id="JJOiUmpwqjzjLiXBdQw1-100" value="0" style="text;html=1;align=center;verticalAlign=middle;whiteSpace=wrap;rounded=0;container=0;" parent="JJOiUmpwqjzjLiXBdQw1-188" vertex="1">
          <mxGeometry x="80" y="0.17999999999994998" width="20" height="20.25" as="geometry" />
        </mxCell>
        <mxCell id="JJOiUmpwqjzjLiXBdQw1-101" value="0" style="text;html=1;align=center;verticalAlign=middle;whiteSpace=wrap;rounded=0;container=0;" parent="JJOiUmpwqjzjLiXBdQw1-188" vertex="1">
          <mxGeometry x="80" y="21.17999999999995" width="20" height="20.25" as="geometry" />
        </mxCell>
        <mxCell id="JJOiUmpwqjzjLiXBdQw1-102" value="0" style="text;html=1;align=center;verticalAlign=middle;whiteSpace=wrap;rounded=0;container=0;" parent="JJOiUmpwqjzjLiXBdQw1-188" vertex="1">
          <mxGeometry x="40" y="0.17999999999994998" width="20" height="20.25" as="geometry" />
        </mxCell>
        <mxCell id="JJOiUmpwqjzjLiXBdQw1-103" value="0" style="text;html=1;align=center;verticalAlign=middle;whiteSpace=wrap;rounded=0;container=0;" parent="JJOiUmpwqjzjLiXBdQw1-188" vertex="1">
          <mxGeometry x="40" y="21.17999999999995" width="20" height="20.25" as="geometry" />
        </mxCell>
        <mxCell id="JJOiUmpwqjzjLiXBdQw1-104" value="" style="rounded=0;whiteSpace=wrap;html=1;container=0;fillColor=#d5e8d4;strokeColor=#000000;" parent="JJOiUmpwqjzjLiXBdQw1-188" vertex="1">
          <mxGeometry x="100" y="0.30999999999994543" width="79" height="40" as="geometry" />
        </mxCell>
        <mxCell id="JJOiUmpwqjzjLiXBdQw1-105" value="" style="endArrow=none;html=1;rounded=0;entryX=0.5;entryY=0;entryDx=0;entryDy=0;exitX=0.5;exitY=1;exitDx=0;exitDy=0;fillColor=#d5e8d4;strokeColor=#000000;" parent="JJOiUmpwqjzjLiXBdQw1-188" source="JJOiUmpwqjzjLiXBdQw1-104" target="JJOiUmpwqjzjLiXBdQw1-104" edge="1">
          <mxGeometry width="50" height="50" relative="1" as="geometry">
            <mxPoint x="139" y="30.309999999999945" as="sourcePoint" />
            <mxPoint x="139" y="0.30999999999994543" as="targetPoint" />
          </mxGeometry>
        </mxCell>
        <mxCell id="JJOiUmpwqjzjLiXBdQw1-106" value="" style="endArrow=none;html=1;rounded=0;entryX=0.25;entryY=0;entryDx=0;entryDy=0;exitX=0.25;exitY=1;exitDx=0;exitDy=0;fillColor=#d5e8d4;strokeColor=#000000;" parent="JJOiUmpwqjzjLiXBdQw1-188" source="JJOiUmpwqjzjLiXBdQw1-104" target="JJOiUmpwqjzjLiXBdQw1-104" edge="1">
          <mxGeometry width="50" height="50" relative="1" as="geometry">
            <mxPoint x="118.5" y="30.309999999999945" as="sourcePoint" />
            <mxPoint x="118.5" y="0.30999999999994543" as="targetPoint" />
          </mxGeometry>
        </mxCell>
        <mxCell id="JJOiUmpwqjzjLiXBdQw1-107" value="" style="endArrow=none;html=1;rounded=0;exitX=0.75;exitY=1;exitDx=0;exitDy=0;fillColor=#d5e8d4;strokeColor=#000000;" parent="JJOiUmpwqjzjLiXBdQw1-188" source="JJOiUmpwqjzjLiXBdQw1-104" edge="1">
          <mxGeometry width="50" height="50" relative="1" as="geometry">
            <mxPoint x="159" y="30.309999999999945" as="sourcePoint" />
            <mxPoint x="159" y="0.30999999999994543" as="targetPoint" />
          </mxGeometry>
        </mxCell>
        <mxCell id="JJOiUmpwqjzjLiXBdQw1-108" value="" style="endArrow=none;html=1;rounded=0;entryX=0;entryY=0.5;entryDx=0;entryDy=0;exitX=1;exitY=0.5;exitDx=0;exitDy=0;fillColor=#d5e8d4;strokeColor=#000000;" parent="JJOiUmpwqjzjLiXBdQw1-188" source="JJOiUmpwqjzjLiXBdQw1-104" target="JJOiUmpwqjzjLiXBdQw1-104" edge="1">
          <mxGeometry width="50" height="50" relative="1" as="geometry">
            <mxPoint x="170" y="60.309999999999945" as="sourcePoint" />
            <mxPoint x="170" y="30.309999999999945" as="targetPoint" />
          </mxGeometry>
        </mxCell>
        <mxCell id="JJOiUmpwqjzjLiXBdQw1-109" value="1" style="text;html=1;align=center;verticalAlign=middle;whiteSpace=wrap;rounded=0;container=0;" parent="JJOiUmpwqjzjLiXBdQw1-188" vertex="1">
          <mxGeometry x="140" y="0.5599999999998317" width="20" height="20.25" as="geometry" />
        </mxCell>
        <mxCell id="JJOiUmpwqjzjLiXBdQw1-110" value="0" style="text;html=1;align=center;verticalAlign=middle;whiteSpace=wrap;rounded=0;container=0;" parent="JJOiUmpwqjzjLiXBdQw1-188" vertex="1">
          <mxGeometry x="140" y="21.55999999999983" width="20" height="20.25" as="geometry" />
        </mxCell>
        <mxCell id="JJOiUmpwqjzjLiXBdQw1-111" value="0" style="text;html=1;align=center;verticalAlign=middle;whiteSpace=wrap;rounded=0;container=0;" parent="JJOiUmpwqjzjLiXBdQw1-188" vertex="1">
          <mxGeometry x="160" y="0.17999999999994998" width="20" height="20.25" as="geometry" />
        </mxCell>
        <mxCell id="JJOiUmpwqjzjLiXBdQw1-112" value="1" style="text;html=1;align=center;verticalAlign=middle;whiteSpace=wrap;rounded=0;container=0;" parent="JJOiUmpwqjzjLiXBdQw1-188" vertex="1">
          <mxGeometry x="160" y="21.17999999999995" width="20" height="20.25" as="geometry" />
        </mxCell>
        <mxCell id="JJOiUmpwqjzjLiXBdQw1-113" value="0" style="text;html=1;align=center;verticalAlign=middle;whiteSpace=wrap;rounded=0;container=0;" parent="JJOiUmpwqjzjLiXBdQw1-188" vertex="1">
          <mxGeometry x="120" y="0.17999999999994998" width="20" height="20.25" as="geometry" />
        </mxCell>
        <mxCell id="JJOiUmpwqjzjLiXBdQw1-114" value="0" style="text;html=1;align=center;verticalAlign=middle;whiteSpace=wrap;rounded=0;container=0;" parent="JJOiUmpwqjzjLiXBdQw1-188" vertex="1">
          <mxGeometry x="120" y="21.17999999999995" width="20" height="20.25" as="geometry" />
        </mxCell>
        <mxCell id="JJOiUmpwqjzjLiXBdQw1-115" value="0" style="text;html=1;align=center;verticalAlign=middle;whiteSpace=wrap;rounded=0;container=0;" parent="JJOiUmpwqjzjLiXBdQw1-188" vertex="1">
          <mxGeometry x="100" y="0.17999999999994998" width="20" height="20.25" as="geometry" />
        </mxCell>
        <mxCell id="JJOiUmpwqjzjLiXBdQw1-116" value="0" style="text;html=1;align=center;verticalAlign=middle;whiteSpace=wrap;rounded=0;container=0;" parent="JJOiUmpwqjzjLiXBdQw1-188" vertex="1">
          <mxGeometry x="100" y="21.17999999999995" width="20" height="20.25" as="geometry" />
        </mxCell>
        <mxCell id="JJOiUmpwqjzjLiXBdQw1-117" value="" style="rounded=0;whiteSpace=wrap;html=1;container=0;fillColor=#d5e8d4;strokeColor=#000000;" parent="JJOiUmpwqjzjLiXBdQw1-188" vertex="1">
          <mxGeometry y="0.30999999999994543" width="20" height="40" as="geometry" />
        </mxCell>
        <mxCell id="JJOiUmpwqjzjLiXBdQw1-118" value="" style="endArrow=none;html=1;rounded=0;entryX=0;entryY=0.5;entryDx=0;entryDy=0;exitX=1;exitY=0.5;exitDx=0;exitDy=0;fillColor=#d5e8d4;strokeColor=#000000;" parent="JJOiUmpwqjzjLiXBdQw1-188" source="JJOiUmpwqjzjLiXBdQw1-94" target="JJOiUmpwqjzjLiXBdQw1-117" edge="1">
          <mxGeometry width="50" height="50" relative="1" as="geometry">
            <mxPoint x="90" y="60.309999999999945" as="sourcePoint" />
            <mxPoint x="90" y="30.309999999999945" as="targetPoint" />
          </mxGeometry>
        </mxCell>
        <mxCell id="JJOiUmpwqjzjLiXBdQw1-119" value="0" style="text;html=1;align=center;verticalAlign=middle;whiteSpace=wrap;rounded=0;movable=1;resizable=1;rotatable=1;deletable=1;editable=1;locked=0;connectable=1;container=0;" parent="JJOiUmpwqjzjLiXBdQw1-188" vertex="1">
          <mxGeometry y="0.17999999999994998" width="20" height="20.25" as="geometry" />
        </mxCell>
        <mxCell id="JJOiUmpwqjzjLiXBdQw1-120" value="0" style="text;html=1;align=center;verticalAlign=middle;whiteSpace=wrap;rounded=0;movable=1;resizable=1;rotatable=1;deletable=1;editable=1;locked=0;connectable=1;container=0;" parent="JJOiUmpwqjzjLiXBdQw1-188" vertex="1">
          <mxGeometry y="21.17999999999995" width="20" height="20.25" as="geometry" />
        </mxCell>
        <mxCell id="JJOiUmpwqjzjLiXBdQw1-121" value="0" style="text;html=1;align=center;verticalAlign=middle;whiteSpace=wrap;rounded=0;movable=1;resizable=1;rotatable=1;deletable=1;editable=1;locked=0;connectable=1;container=0;" parent="JJOiUmpwqjzjLiXBdQw1-188" vertex="1">
          <mxGeometry x="20" y="0.5699999999998226" width="20" height="20.25" as="geometry" />
        </mxCell>
        <mxCell id="JJOiUmpwqjzjLiXBdQw1-122" value="0" style="text;html=1;align=center;verticalAlign=middle;whiteSpace=wrap;rounded=0;movable=1;resizable=1;rotatable=1;deletable=1;editable=1;locked=0;connectable=1;container=0;" parent="JJOiUmpwqjzjLiXBdQw1-188" vertex="1">
          <mxGeometry x="20" y="21.569999999999823" width="20" height="20.25" as="geometry" />
        </mxCell>
        <mxCell id="JJOiUmpwqjzjLiXBdQw1-123" value="" style="endArrow=none;html=1;rounded=0;fillColor=#d5e8d4;strokeColor=#000000;" parent="JJOiUmpwqjzjLiXBdQw1-188" edge="1">
          <mxGeometry width="50" height="50" relative="1" as="geometry">
            <mxPoint x="19" y="40" as="sourcePoint" />
            <mxPoint x="19" as="targetPoint" />
          </mxGeometry>
        </mxCell>
      </root>
    </mxGraphModel>
  </diagram>
</mxfile>
